<svg xmlns="http://www.w3.org/2000/svg" viewBox="0 0 19.91 25.99"><defs><style>.cls-1{fill:#2d6d95;}</style></defs><g id="Layer_2" data-name="Layer 2"><g id="Layer_1-2" data-name="Layer 1"><path class="cls-1" d="M9.94,26c-1.29-1.52-2.52-2.9-3.68-4.34A44.47,44.47,0,0,1,.88,13.49C-1.8,8.09,1.93,1.29,8,.18A9.91,9.91,0,0,1,19.79,8.34a8.19,8.19,0,0,1-.68,4.87,38.48,38.48,0,0,1-5.45,8.41C12.49,23.06,11.26,24.45,9.94,26Zm0-2.31c1.13-1.37,2.22-2.63,3.24-3.94a34.29,34.29,0,0,0,4.54-7.2,6.64,6.64,0,0,0,.49-4.19,8.54,8.54,0,0,0-9.6-6.77c-5.27.61-8.57,6.63-6.5,11A48.77,48.77,0,0,0,10,23.68Z" transform="translate(0)"/><path class="cls-1" d="M9.94,5.05a4.84,4.84,0,0,1,4.91,4.88A4.91,4.91,0,1,1,5,9.94,4.84,4.84,0,0,1,9.94,5.05Zm0,8.29A3.45,3.45,0,0,0,13.34,10,3.47,3.47,0,0,0,10,6.56,3.46,3.46,0,0,0,6.55,10,3.45,3.45,0,0,0,9.94,13.34Z" transform="translate(0)"/></g></g></svg>