<svg xmlns="http://www.w3.org/2000/svg" viewBox="0 0 437.99 327.55"><defs><style>.cls-1{fill:#6ed6d3;}.cls-1,.cls-2{fill-rule:evenodd;}.cls-2{fill:#2d6d95;}</style></defs><g id="Layer_2" data-name="Layer 2"><g id="Layer_1-2" data-name="Layer 1"><path class="cls-1" d="M249.06,46.26l-9.71-8.69L237,35.51c-.81-.64-1.62-1.26-2.42-1.88L229.94,30c-1.72-.41-5.64-4.55-7.83-4.19a11.3,11.3,0,0,0-4.36-2.92c1.29-.47-2.07-1.38-1.28-1.9-1.78-.61-3.22-2.53-4.25-2.33,2.05,1.46,3.69,1.81,3.89,3-1.91-1.42-4.31-2.25-5.28-3.83-1.69-.78-5.14-1.59-6.16-3-.53.73-1.88-1.12-3-1.06-.26.25.36.72-.2.54-1.56-.3-3-1.92-4.33-2.07.43.23.84.46.59.71-1.15-.39-.94-.82-2.09-1.21-.35.56,1.45,1,2,1.57,1-.22,5.1,1.73,5.44,2.41-1.35-.29-1.92-.05-2.93-1.21-.45.37.57.71.44,1.07,1.18.57,1.45,0,2.71.67-.43.37-1.3.18-1.86.39,1.26.67,1.25-.25,2.42.32.21.5-1.31.07-.29.72a1,1,0,0,1,.55.07,1.51,1.51,0,0,0-.16.31c-.08.26-.15.52-.22.77a.46.46,0,0,1,0-.45,4.07,4.07,0,0,1-2.05-1.22c-.16.45,1.27,1.39,2.05,1.84-.15.55-.3,1.11-.49,1.65,0,0-.13.05-.27.05a9.28,9.28,0,0,0-1-.53,1.53,1.53,0,0,0-1.11-.49c-1.09-.48-2.07-1-2.34-1.91-1.3.4-5.79-2.18-6.64-3.23-.25.38-1.07.3-1.94,0a7.12,7.12,0,0,1-.58-.64c-.24-.32-.54-.2-.75.15-.7-.33-1.21-.68-1.16-.85-.78,0-1.6,0-2.44-.09-.47-.21-.94-.43-1.42-.63,0,0,.08,0,.11-.07-1.64-.66-3.22-1.21-4.78-1.71l-.09,0A69.94,69.94,0,0,0,167.91,8.1c-1.49-.44-3-.91-4.74-1.47,0,.34-.35.45-.81.45-1.22-1-3.4-1.07-5.24-1.2A10.83,10.83,0,0,0,154,4.68a1.45,1.45,0,0,1,0-.29c-.73-.12-.92,0-1,.09L152,4.34c-1.33-.19-2.7-.3-4-.45a23.77,23.77,0,0,1-3.86-.54c-3.87-1-7.79-2.07-11.78-2.83-4-.61-8-.87-11.88.27-.92.06-.19.84-1,1a64.52,64.52,0,0,0-9.62,1.1c-3.33.74-6.78,1.37-9.93,2.1-4.51.88-9.2.9-13.46,2.72a28.77,28.77,0,0,0-6.15,3.63A14.83,14.83,0,0,0,76.55,16c-3.84,1.43-6.25,6.48-10.6,6.88-.52.67.09,1.39-1.23,2-.86.54-1.12.11-1.68.21.63,1,1,.46,1,1.58,2.23-1.86,3.53-2.35,5.18-4.41a6.63,6.63,0,0,0,2-.62A61,61,0,0,1,87.83,9.79c6.89-3.09,14.94-3.34,19.72-5.87,1.27-.08,1,1.07,2,1.23,2.59-1.41,5.38-.24,8.68-.93,2.34-.4,4.18-1.94,6.93-2.16a39,39,0,0,1,7.51.5,76.32,76.32,0,0,0,8.15,1.07l.35.24c-1.39.07-2.53,0-4.65.15-.14-.46,1.06-.14,1.08-.51a39.58,39.58,0,0,0-4.37.08A10.33,10.33,0,0,1,129.36,3c.24.94-1.88.7-2.05,1.43,2,0,4.54,0,5.61,1.12-1.54.39-2.33-.71-2.93-.17a9.35,9.35,0,0,0,4.71.4,20.25,20.25,0,0,1,5.16-.13.65.65,0,0,1-.34.57,10.36,10.36,0,0,0,4.37,0c.43.11.88.18,1.32.27a1.7,1.7,0,0,0-.6.23c.54.2,1.11.39,1.6.61a.82.82,0,0,0-.48.23c.36,0,.71,0,1,.09a1.53,1.53,0,0,1,.54.53,18.72,18.72,0,0,0-5,2.18,6.37,6.37,0,0,1-1.19-.4v.59a3.13,3.13,0,0,1,.79,0l-.62.37-.51,0c0-.3-1-.73-.7,0,.46,0,.69.15.74.37h0a7.43,7.43,0,0,1-1.93.42,17.45,17.45,0,0,1-2.19-.65c-1-.19-2.17,1-1.78,1.94a6.21,6.21,0,0,1,.32.91,14.72,14.72,0,0,1-1.81.39,5.44,5.44,0,0,0-2.46-1.95c-.15-.07-.48.24-.68.42a.46.46,0,0,0-.06.41l.08.16a2.73,2.73,0,0,1-2.6-.06.9.9,0,0,0,.44.78,11.3,11.3,0,0,1,2.44-.24c.05.06.09.1.14.1a3,3,0,0,1,1.29.41,33,33,0,0,0-6.11.33c-.41.07-.79.15-1.17.24v-.19l-.46-.07a1.94,1.94,0,0,0,0,.35,25.2,25.2,0,0,0-3.3,1c-.54,0-1-.07-1.48-.11a12.06,12.06,0,0,0-1.39.26,86.15,86.15,0,0,0-26.83,4.59A87.14,87.14,0,0,0,65.72,34.24a22.89,22.89,0,0,0-5.52,2.5A27.84,27.84,0,0,0,55,40.85c-3.61,0-7.44,3.39-10.74,7.08l-2.43,2.74c-.77.92-1.51,1.82-2.25,2.62a15.22,15.22,0,0,1-4.23,3.49c.59,3.94-5.58,9-8.32,10.23.56,1,.11,2.23-.72,3.34a19.87,19.87,0,0,1-2.92,3.06c-.38-.25.32-2.29-.76-.53-.6.76-.18,1.06-.29,1.58-1.05.36-2.07,1.09-3.09.91-1.11,1.48-.62,2.13-1.72,3.6a3.23,3.23,0,0,1-.32-2.54c1-2.55,2-2.35,3.08-3.35-.67-.38-1.32.27-.75-1.11,1.94.53,1.35-3,3.45-3a2.86,2.86,0,0,0-.57,2c.8-1.81,1.9-3.87,2.64-5.44-.3.44-.85.94-.53.22A63,63,0,0,0,9.81,86.55a112.75,112.75,0,0,0-7.44,24.66c-.93.73-1.53,2.53-2.18,4.19-.23,5.33-.77,9,2.19,11,.75-6.07.81-11.07,3.56-20.45,1.28-1.69,2.82-2.75,4.59-2.51-1.24,7.58-5,15-5.07,22.58,0,1.07.38,1.58.3,2.58C5.32,134.78,4.47,137.76,4,142c-.82,8.14.52,17,1.44,25.23.23,1.8-.84,3.76.75,5.56-.07-2.27-.19-4.63-.48-6.81a34.69,34.69,0,0,0-1-5.83c.14-2.33.34-5.47.28-8.71.14-3.24.05-6.58.21-9.33.34-1.33.6-2.62.82-3.89s.48-2.48.66-3.7c.31-2.46.62-4.84.93-7.31A69.6,69.6,0,0,1,11.2,111c1.71-.11,1.82-1.68,2.59-3.65,1.65.77,2.8-.46,3.72-2.58,0-1.4-1.41.3-1.27-1,.94-1.07,1.88-2,3.17-1.7-.44,1.15-.74,2.54-1.33,2.95,1.49.14,2.22-2.58,3.86-1.85a65,65,0,0,0-1.26,6.55c-.22,2.19-.43,4.33-.6,6.46a78.39,78.39,0,0,1-1.61,12.69c-.95,1-2.21,1.33-3,2.63,1.13,1.17,2.22-2,3.58-2.06a33.84,33.84,0,0,1,.44,4.73c0,.5.09,1,.15,1.48l-.11.2c-.73,1.23-1.5,2.74-.81,4.31.11.27.18.53.27.79a35.21,35.21,0,0,0-.18,3.9,1,1,0,0,0-.06.16c0,.16,0,.32.06.47s0,.5,0,.74a5.79,5.79,0,0,1-2.16,3.53c-.37.36-.31.78-.06,1.25a2.2,2.2,0,0,1,.3.88c.05.7.45,1.65-.86,1.54a2.21,2.21,0,0,0,.08,2.14c.57,1.27.76,2.41-.34,3.38a1,1,0,0,0-.35.78c.12,1.54-.42,3.11.42,4.61.55,1-.18,1.37-.55,1.94.11.27.31.59.23.75a12.8,12.8,0,0,0-1,6.7,8.46,8.46,0,0,1-.32,3.63c-.62,1.62-1.5,3.41.58,5.06.27.21.22.9.24,1.37,0,.78,0,1.56,0,2.34,0,.38.25,1-.52.94-.52-.07-1.26.32-1.41-.7a1.66,1.66,0,0,0-.38-.84,2.8,2.8,0,0,0-.81-.41c0,.15,0,.3-.07.46A3.88,3.88,0,0,0,13,188.84c.49.42.92.61.94,1.29,0,1.08.18,2.18-.68,3-1,1,.34.88.63,1.33a4.6,4.6,0,0,1,.88,3.07,5,5,0,0,0,0,2.51,15.61,15.61,0,0,1-1.44-2.47c-2.61-5.2-3.63-12.53-6.21-17.69,1-2.14-.84-1.46-.51-4.61-.72-.3-1.91-1-2.15-.2-.3.16-.32.64-.35,1.11,1.42,2.94,1.45,5.4,3,8,.4,7.93,3.22,15,7,22a1.56,1.56,0,0,1-.42.43.91.91,0,0,0,.78.23l.24.44c.38.66.77,1.31,1.16,2a9,9,0,0,1-.32,1.34,2.35,2.35,0,0,0,.67,2.52c2.28,2.35,2.24,2.4,1.53,5.55a4.41,4.41,0,0,1-.29.71,1,1,0,0,1,.08,1.33c.59.51,1.9.23,1.67,1.68a5.6,5.6,0,0,0,.16,2.33c.08.32.16.63.23.93a.94.94,0,0,0-.26-.18l.34.6a3.15,3.15,0,0,1-.08,1.28c-.25.95.94,1,1.67,1.23.31,2.29,3.22,3.19,3.3,5.6a17.77,17.77,0,0,1,2.67,2.83c.74,1.2,1.18,2.55,2.4,3.47a1.8,1.8,0,0,1,.51,2.49,1,1,0,0,0,.35.78c1.18.29,1.59,1.28,2.12,2.17,1.9.28,3,1.78,4.21,3s2.84,2.22,3.08,4.2c0,.38.69.67,1.17.49s1.08-.53,1.67.1c.44.47.91.92,1.4,1.35,2,1.79,3.62,4.11,6.32,5,.34.12.59.71.8,1.12s0,.91.72,1c1.06.08,1.66.92,2.29,1.65,1.34,1.54,2,2.19,2.9,2.47a10.58,10.58,0,0,0,4.09.94,2.58,2.58,0,0,1,1.77.42,10,10,0,0,0,3.62,2.22c1.6,2,3.88,2.66,6.09,3.46.28.1.79.28.84.2.87-1.57,2.44-.38,3.61-.69s2.36-.7,3.52-1.09l1.6.75a.29.29,0,0,0,.39.18c.52.25,1,.53,1.57.8a1.94,1.94,0,0,0,1.57,2.13,17.94,17.94,0,0,1,4.09,2.22c.45.27.85.5,1.26.3.61-.3,1-.44,1.3.47.26.71,1.11,1.33,1.18,2,.18,1.65,1.66,1.18,2.44,1.81.4.32.91-.25.94-.66.08-1.08,0-2.19,0-3.27s-.59-1.08-1.32-1.45a10.84,10.84,0,0,1-3.37-3.37c-.07-.1,0-.29,0-.44.15,0,.36,0,.46.05,1,.86,2.13.39,3.15.76.47.17.24,1.49,1,1.06a3.6,3.6,0,0,1,3.53.25c1.41.68,2.81,1.38,4.25,2,1.6.66,3.23,1.21,4.84,1.82.44.17,1,.27,1.25.59a4,4,0,0,0,3.8,1.54c1.48-.13,2.34.71,3.25,1.67.54.58,1.07,1.27,2,1.26,1.73,0,3.26.91,4.89,1.3.73.16.13-.54,0-.87a5.32,5.32,0,0,1-.12-.8c.15,0,.37,0,.45.09,1.31,1.37,3,2.35,3.66,4.34.46,1.38,1.74,2.11,3.26,2.53,2.49.71,2.85.83,4.79-.07,1.62-.75,2.07-.73,3.3.44,1.06,1,2,2.16,3.64,2a1.2,1.2,0,0,1,.91.19c1.59,1.61,3.5,1.31,5.34,1.36,1.39,0,2.84.43,4.09-.34,1.51.59,3.07.48,4.59.75,1.69.3,3.19-1.05,4.9,0,.28.17.47-.13.29-.55s-.38-.52-.49-.81a1.81,1.81,0,0,1-.09-.31c.92-.08,1.9-.2,2.86-.3-.79,0-2-.34-3.07-.51a.56.56,0,0,0-.09-.19c-.47-.65-1-.45-1.61-.14a1.7,1.7,0,0,1-1.34.09,4.17,4.17,0,0,0-.75-.26l.2-.15a1.85,1.85,0,0,0-.59,0c-1.45-.37-2.94-.22-4.38-.58-1.05-.26-2.39-.24-3.07-.89-.84-.81-1.12-2.2-1.65-3.33-.19-.42-.41-.83-.6-1.26a.8.8,0,0,1,0-.46c.09-.61,0-.22.43.08a1.59,1.59,0,0,0,2.38-.27c.67-.71.83-.16,1.15.51.5,1.05.9-.1,1.38-.11s.74.17.46.5c-.95,1.09-.07,1.39.77,1.75a2.72,2.72,0,0,0,1.51,2.28.58.58,0,0,0,.45.09c.09,0,.12-.25.11-.39a3.09,3.09,0,0,0-.13-1.38,2.9,2.9,0,0,1,.43-4.07,2.42,2.42,0,0,0,1.57-1,1.79,1.79,0,0,0,.83,1l-.26,0,.45,0a2,2,0,0,0,.78.12c.34,0,.62.38.81.81a6.17,6.17,0,0,0-.89.13c-.32-.81-2.61-1-2-.2,1.23-.94.6.67,1.08.69a6.55,6.55,0,0,1,2.06,0,28.81,28.81,0,0,0,1.36,2.93c.81,1.5,1.92,2.58,3.75,2.33a4.13,4.13,0,0,1,4.06,2c.29.39.71.68,1,1.06a3.55,3.55,0,0,0,.44.43,4.44,4.44,0,0,1-.66.37,3.9,3.9,0,0,0,1.06-.07l.38.23a29.59,29.59,0,0,1-6.84.85l-5.91.13a39.3,39.3,0,0,0-5.18.09c.63,0-1.38.57-2.4.24,1.19,1.2,5.13,1.48,7,2.84a5.54,5.54,0,0,1,3.33.7,3.09,3.09,0,0,0,1.38-.35c.83,1.59,8.91.2,8.29,1.47a19.76,19.76,0,0,1,4-1.49c0-.49-.75-.29-.61-.9,1-.16,1.74-.41,1.95-.82-2.12.35-2.13,1.37-3.88,1.81.11-.73-1-.88-1.55-.41-.38.77,1.22,0,1.2.46-.55.08-.15.53-1,.52.47-1.16-2.93.43-4.07-.32a.79.79,0,0,1,.53-.87c2.62,0,1.25-.56,2.26-1.08,1.07-.22,1.05.42,1.89.38,0-1,1.8-1.33,3.22-1.44a20.07,20.07,0,0,0,3.95-2.66h.33a28.39,28.39,0,0,0,3.56-.45c.29,0,.4-.37.12-.67-.63-.71-1.14-1.76-2.12-1.85-1.33-.14-2.81-.67-3.88.58a1.44,1.44,0,0,1-1.22.38l-1.7-.41a.8.8,0,0,1,.14-.3,3.38,3.38,0,0,1-.69.16l-2.67-.69c-.61-1.26-1.29-2.49-1.82-3.77a1.86,1.86,0,0,0-.82-1.07.89.89,0,0,0-.39-.05c-.13,2.18-1.79.9-2.79,1a2.28,2.28,0,0,1-1.8-1c.44-.94,2.13.22,2.57-.9a3.09,3.09,0,0,0,.43,0,13.36,13.36,0,0,0,4.15.12c1.56-.18,3-.42,3.78-.43-.22-.1,0-.76.25-.86,1.15.29,3.74-1.64,2.86-.41,1.2-.17,1.28-.72,1.6-1.18-2.4,1-4.9,1.11-6.27,2.19-1-.62-2.61-.08-4,.16a7.6,7.6,0,0,1-1.39.15,4.29,4.29,0,0,0,.27-.57c0-.05-.11-.26-.2-.29a8.06,8.06,0,0,1-.91-.25c-.42-.21-.88-.48-.74-1a1,1,0,0,1,.9-.85,8.82,8.82,0,0,0,1.24-.26c.37.31.72.75,1.13.84a1.71,1.71,0,0,0,1.17-.42,11.56,11.56,0,0,1,1.42-1.11c-.12.28-.38.48.44.26a2.78,2.78,0,0,1,.74-.52.87.87,0,0,0,.32-.15c1.65-.75,4.21-1,5.28-1.74l-2.77.49c.33-.31.66-.63,1-1,.07-.08,0-.29,0-.42s-.21-.12-.3-.11a1.5,1.5,0,0,0-1.35,1.34.49.49,0,0,0,.07.27l-1.52.24c.06-.5.07-1,.49-1.31a5.75,5.75,0,0,0,1.14-1.12,5.9,5.9,0,0,0,2-.2c-.26-.49,1.1-.41.63-1a.76.76,0,0,0-.42-.32,4.81,4.81,0,0,0,2.21-1.61,1.6,1.6,0,0,1,2.35-.37,2.16,2.16,0,0,0,1.82.14c.2.32.74.41,1.36.4-.71.65-.26,1.61-1.4,2.16a1.75,1.75,0,0,1,1.31,0c0,.49-.94.77-.79,1.32a8.09,8.09,0,0,1,4-.86c-.44-1,1.54-1.24,2.09-1.33-.13.65-.93,1-1.88,1,.91.67-1.06.64-.48,1.23,1.3-.16,3.5-3.38,5.66-2.42-2.67.78-2.76,1.84-4.16,2.78,0,1.24.75,1.56,1.71,1.54l-.24-.53c.59-.28.85-.13,1.28-.21-.1.23-.21.46.18.38.13.48-.59,0-1.15.36,1.16,0,2.68-.55,3.86-.52,2.36-1.31,6.63-1.92,8.21-3.4-1,.19-2.83,1.4-3.66.52.12-1.17,1.94-.31,1.81-1.26-1.39.32-1.7,1-2.58.48.38-.17.1-.44.38-.62,1.18-.27,2.63-.34,2.91.14-.1-.33,1.12.13.82-.46-.51,0-.74-.39-1.07-.64-1.38.67-2.43.81-3,.23,1.21-1.45,2.84-1.61,3.94-2.51a5.94,5.94,0,0,0,1.84.39c.55,0,.78-.34,1-.76s-.14-.93.5-1.06a11.49,11.49,0,0,1,2.61-.56,13.24,13.24,0,0,0,5.7-1.05h0a.66.66,0,0,0,.09.27c-1.4,1-2,2.19-3.85,2.71a1.37,1.37,0,0,0,.49,0c-.93.59-1.87,1.2-2.82,1.85.36,1.43.88-.93,1.58-.12-.38.64-2.43,1.91-3.08,1.33a11.67,11.67,0,0,0,1.64-.65c-.44-.21-1.14.09-1.81.32v0l-.07.05a2.26,2.26,0,0,1-1.12.17c-.07.23-1.31,1.13-.55.92l.11-.06c-2,1.21-4,2.1-5.9,3.08a22.26,22.26,0,0,0-6.45,4.12,2.89,2.89,0,0,0-3,.6A14.82,14.82,0,0,1,185,285c.18,1.39-2.81.18-3.72,1-.21-.25-.49-.24-.19-.58-2,1.75-4.4-.37-7.11.91,1.39-.15-.87,1.3,1.54.7.31-.53-1-.56-.22-.78.24,1.21,2.8.41,4.06,1.2,1.44-1.47,3.55-.8,6.06-1.34.37.29,1.34,1.29,1.9.46-1.23.49,0-.75-.05-1.05a18.23,18.23,0,0,1,3.74-.61,4.73,4.73,0,0,0-.69,1.52l.79-.32c.15.17.25.23.17.69,1.55-.22,1.39-.83,2-1.27.09,1.39,3.81-.7,5.2-.44-.25-.39,0-.66.65-.92,0,.32-.21.47.27.56,5.76-2.61,10.81-5.27,15.89-7.85,1.3-1.52,5.72-4.8,6.7-2.94,6.26-3,11.56-7.72,17.29-12.46,1.08-2.44,3.59-4.26,5.36-5.7-.26.2.11-.84.72-1.12,2.25-1.06,0,2.31-1.41,3.62,1.19-1.22,1,.94,1.1,1.52-2.35,2.92-4.63,4.92-6.68,7.52-.7.52-1.16.22-1.91.88-.51,1.56-2.61,1.51-3.86,2.7-.72.67-.73,1.79-1.51,2.4s-2.21.57-3,1.13c-.45.33-1,1.19-1.39,1.51,0,0-.06-.47,0-.53-.82.59-.88,1.34-1.56,1.87-.12.09-.56-.35-.65-.33-1.25.34-1.92,2-3,2.74-1.18,0,.46-1.35-.87-.68.32.63-1,1.25-1.19,1.88-1.45-.48-3.27,2-3.49.81a28.91,28.91,0,0,1-7.18,4.49c.38-.13.49.13.61.4a14.31,14.31,0,0,0-4.21,2.31c-.09-.19.14-.33.13-.51-1.76.81-3.35,1.65-4.87,2.2a37.11,37.11,0,0,1-4.12,1.22,3.88,3.88,0,0,1-.67,1.07c-1-.22-1.16.06-1.57.72-.81-.13-.84-1-1.63-.33,1.34.18-1,1-1.69,1.39-.15-.38-1,0-.95-.56-.26-.41.88-.51.78-.88-2.14.73-1.93,1.3-1.75,2.25.91.06,2.25-.36,3.22-.37.2-1.27,4-1.76,5-1.6-.43.14-.16.42-.5.59-.15-.21-.17-.55-.57-.46-1.45,1.79-3.82,1.81-6.51,2.5,1.06.51-.42.78-.19,1.54,2.67-.82,5.32-1.74,7.75-2.45-1.21,0,.74-.88,1-1.19.76.06,2.9,0,3.26-.44-.41.1-.5-.17-.59-.45,1.8.42,3.58-.83,5.55-1.36-2.07.78-.92.82-2.32,1.66,1.54-.36,2.46-.47,3.15-1.58l.28.55a24.88,24.88,0,0,1,5.49-2.45c1.06-.39,2.15-.77,3.17-1.25a18,18,0,0,0,2.78-1.77c.18.18.26.52.63.35,2.79-2.47,8.26-4,9.3-5.71.6.58-.72,1.75-1.73,1.81,1,1,2.17-.88,2.79-1.55,0,0,.29.3.25.33,1-1,1-2.09,2.11-3,1.46-1.21,2.57-.68,4.36-2.41-1.21-.32,2-1.59,2.41-2.57-1.54,1.09-.85.27.33-.69s2.67-2.25,3.14-1.72c-.91.73-.68,1.22-1.16,1.86,1.38-1.34.91-.52,1.74-.16,1-1.21,1.54-.92,2.38-1.59-.57-.37-1.57.63-2.27.66a2.35,2.35,0,0,0,.64-.86c.78-.36,1.89,0,1.85-1.11a.86.86,0,0,0,.83.36c-1.94,2.09-3.26,3.54-4.66,4.83a33.67,33.67,0,0,1-5.48,3.47,18,18,0,0,1-4,2.91,18.26,18.26,0,0,0-4,3.12c-.25-.3-1.1.48-1.27,0-3.55,2.72-8.73,3.38-11.24,6.28,1-.36,2.11-1.24,2.45-.78-.95.58-5.28,3.19-4.94,1.45a10.57,10.57,0,0,1-2.52,1.35c-.1,1,1.71-.72,1.93-.18-1.43.75-4.6,2.57-6.21,2.06a60.86,60.86,0,0,1-8.23,3,29.81,29.81,0,0,1-7.06,1.36c.15,1-.85-.22-1.52,0-.81.45.66.87,0,1-.35.08-.36.25-.64.35-1.31.48-1.42-.18-2.32-.1-.25.64-2.05.84-3.41,1.16-.72-1.4-3,.08-4.43.31a76.78,76.78,0,0,1-9.73.88c-3.32.14-6.44.46-8.81.53,3.8.41,4.92-.36,8.16.26a30.84,30.84,0,0,1,7-1,51.32,51.32,0,0,0,7.35-1.12c.1.49.75.48,1,.81-.33.38-1.26.59-1.61,1,1.52.13,4.94-1.89,7.65-1.26,0-.66,1.24-.59,2-.78.66-1.64,5.85-3.21,7.93-3.6.07.38-3.13,1.05-1.91,1.05,1-.33,2.09-.7,2.32-.11-.57.31-2.14.44-2,.87,1.23-.08,3.34-1.18,3.28.21,1.52-.35-.79-.56.71-1.09.14.11.38.11.77-.05.84.7-.22,1.11-.45,1.65,1.8,0,1.54-.83,1.49-1.14,1.32.13-.59,1,.52,1.11a13.76,13.76,0,0,0,4-1.16,1.05,1.05,0,0,1-.86-.07c.66-.15,1.14-1.14,1.69-.73-.38.2-1,.38-.92.62,2.15-.31,5-2.11,6.58-1.78.7-.61-.9-.26,0-.87,1.79-1.12,2.09-.16,3.44-.66,0-.34-.93-.74-.18-1,1.25-.42,2.94-2,3.25-1-.27.32-2.37,1.52-1.41,1.25,1.62-1.35,3.12-1.68,3.44-2.87,1.42-.52.36,1.07,1.62.49.38-.36-.38-.69.2-1.06.63.08,4.49-1.16,2.46-.94a28.47,28.47,0,0,0,3.63-1.9c-.13-.28-.56-.55-.16-.86a41.29,41.29,0,0,0,7.28-4.78c2.18-1.71,4.34-3.31,6.61-4.81-.13-.36-.76,0-.41-.46,1.74-1.11,3.19-2,3.65-3.55a.77.77,0,0,1,.15.7,10.93,10.93,0,0,1,3.79-2.9c-.16,1.26-2,2-1.42,3.26,1.81-1.81,1.42-3.77,3.83-5.5,0-.67-1.25.1-.6-.57,1-.59,1.17-.84,1.41-1.67.49.5,1.27-.26,2-.65,1.37-2.67,4.28-3.84,5.09-6.68,1.05-1,2.2-2.15,3.29-3.43s2.07-2.77,3-4.2a57.83,57.83,0,0,0,4.57-7.85c.64,0,1.22-1.65,1.81-1,.4-2.22,2.05-2.58,2-4.38-.24.38-.48.73-.71.43a13.86,13.86,0,0,1,1.06-2.34c.3.12.59.39.89-.34-.58-1.69,2-3.62,3-5.08-.31-.28-.6.25-.9.36.6-1.29,1.46-3.84,2.57-3.65-.18,1-1.31.79-.93,1.6.26-.45.58-.18.85-.4.56-4.22,3-9.17,4.16-11.53.36-.89-.15-1.59,0-2,.39-1.08,1.51-1.63,1.79-3.67-.06.38.17-.49.43-1.42.11-.36.82-4.21,1.87-4.86.54,0-.55,2.88.06,2a7.9,7.9,0,0,1,.84-2.87c-.54,0-.61-.54-.47-1.13a3.21,3.21,0,0,1,.69-1.53c.08,1.27-.34,2.88.15,3.57.42-2.32.28-6.86,2-6.08-.19-.06-.11-.71.16-.74.17,1.64.72,1.15.91,2.61a16,16,0,0,1,.93-6.82c.54-2.09,1.15-4.13.09-6.59.38,0,.39.51.75.53.15-1.18-.5-1.2-.11-2.73.36.15.48-.35.83-.25a8.93,8.93,0,0,0-.13-2.73c-.08,1.71-.57,2.36-1.26,2.49.56-2.47-.23-3.83,1-6-.33,1.48.49,1.22.15,2.71.51-.3,1.27.07,1.34-1.35-.29-.11-.75,0-.76-.49.83.38,1.7-4.59,1.67-6.77-.74-.49-.58.91-1.2.66a5.85,5.85,0,0,0,.22-2.3c.47.85.41.59,1.18.49.19-1.23-.65-.58-.58-1.6.76.11.42-2,1-2.26-.66-1.74-.12-2.2.4-1.93-.56-1.51-.37-2.08-1-3.15.39-.63.26,0,.8,0a4.7,4.7,0,0,1,.16-2.73c-.22-.6-.59-1-.87-1.56.35-.69,0-1.59.56-.39,0-4.32-2.36-5.7-2.09-7.76-1.48-.19-1.08-2-.75-3.46-.5-.5-.63,1-.79,0a5.6,5.6,0,0,0-.23-3.47c.57-.38.72.55,1.12.68-.47-.82-.33-2.09-.61-2.29a1.67,1.67,0,0,1-.38,1.21c-.15-.9-.54-1.1-.61-2.28l.59-.07c-1.66-3.12-1.58-7.77-2.75-9-.42-1.2.34-.88.27-1.63-.27,0-.39.25-.5.48-.53-.87-.41-5.58-.75-3-.42-1.79.18-2.49-.58-3.47.2.89-.26,1-.57.13.44.47.69.15.36-.89a5.34,5.34,0,0,1-1.12-1.75c.81.89-.16-1.82-.47-2.3.05.3.21.74,0,.8-.29-.73-1.29-2.66-1-3.38.33.16.46,1.44.82,1.41,0-1.36-.75-1.61-1.28-2.9,1-.92-2.19-3.42-.94-4.23a7.88,7.88,0,0,0,1.8,3.66c.65,1,1.17,1.89.69,3,1.08-.21.82,1.22,1.65,2.83.46-.58.63.48,1,.57-.36-1.79-.52-1-.82-1.43.1-.4-.36-1.41.23-1.28.16.44.29,1.09.53,1.09-.62-1.53-.63-2.39-.24-2.82a13.25,13.25,0,0,1-1.07-2.94,39.61,39.61,0,0,0-1.78-4.57c-.6-.59-.37.7-1-.5-1.1-5.15-4.33-9-5.84-12.73-.9-.5-.69,1.1-1.59-.61-.19-1,.29-.9.87-.83-2.33-3-2.36-5.58-4.39-9-2.25-.66-3.79-6.12-6.21-7.53,1.22,1.42,2.49,3.46,2.42,4.59-1.39-.93-4-4.75-2.63-4.93-1.74-1.48-1.52-3.86-2.89-3.83.85-1.1-1.93-4.74-3.83-6.58.28.28-.19-.6-.82-1.39-1.67-2.07-3.45-4.43-5.3-6.68a52.15,52.15,0,0,0-4.72-4.61,1.65,1.65,0,0,1,.56-.4c-1.88-1.64-3.72-3.27-5.56-4.88a.17.17,0,0,0,.15-.12,19.5,19.5,0,0,1-2.25-1.71c-.62-.55-1.24-1.08-1.87-1.62a18.19,18.19,0,0,0-2.23-3.3c.58.53.71-.06,1.43.79A8.89,8.89,0,0,0,249,48.21c.5.68.37.83-.13.7,3.66,3,5.68,5.87,9.29,8.33-1.22-.29,2.32,3.25,2,2A91.64,91.64,0,0,0,266,67c1.11,1.33,2.24,2.61,3.35,3.77.56.58,1.1,1.13,1.64,1.64s1,1,1.46,1.46c-1.24-1.58-3-4.83-4.59-5.73,1.24.25-1-1.51-1.38-1.5l.46-.35C261.7,59.2,255.28,52.6,249.06,46.26ZM131.37,4.57c.22-.7,1.26-.24,1.83,0C133.15,5,131.6,4.68,131.37,4.57ZM126,281.6c-.11.07-.52-.17-.67-.36a.88.88,0,0,1-.14-.36c0-.14,0-.28-.08-.41h0a2.83,2.83,0,0,1,.74.27C126.16,281,126.46,281.32,126,281.6Zm11.58,5.75c.12.19,0,.48.06.72-.15,0-.34,0-.44-.05-.34-.27-.65-.58-1-.88l0,0-.08-.06a4.71,4.71,0,0,1-.64.19s-.21-.23-.19-.26c.29-.39.56-.16.83.07l.07,0,.06.05C136.7,286.69,137.18,286.71,137.58,287.35Zm3.82,0h0l-.8.17c.08-.26.08-.62.25-.78s.54-.15.82-.21Zm2.79.13a.19.19,0,0,0,0,.07c.23.27.47.55.05.84,0,0-.27-.15-.26-.19a5.45,5.45,0,0,1,.21-.65l-.07-.07s0,0,0,0a2,2,0,0,1-.9-1.42c0-.37.62-1,.8-.79a1.33,1.33,0,0,1,.35.66c.06.55.24,1.14-.25,1.55Zm3.14-1.81c.66,1.55.57,3.33,1.77,4.74.06.07-.21.55-.42.66s-.72.09-.8-.05a14.53,14.53,0,0,1-2-5.14c0-.16.39-.39.63-.53h.33l.13,0C147.09,285.45,147.27,285.53,147.33,285.65Zm18.07-.95c.15.35.09.62-.23.77a.84.84,0,0,1,0-1c.45-.64,1.05-.5,1.51.07a2,2,0,0,0,.17.15A13.21,13.21,0,0,0,165.4,284.7Zm3.25-4-.3.09a2,2,0,0,0,0-.26l-.06-.26h0l.42,0C168.66,280.39,168.65,280.52,168.65,280.66Zm1.79,1.15a.41.41,0,0,1,.05.09h-.09l0-.09a2,2,0,0,0-.11-.2l.22,0A2.56,2.56,0,0,1,170.44,281.81Zm17.28-8.58a3.25,3.25,0,0,1-.67.38,2.06,2.06,0,0,0,.25-.26.71.71,0,0,1,.34-.25h0S187.71,273.17,187.72,273.23Zm22.36,5.26a34.67,34.67,0,0,0-8.65,3.8,28.14,28.14,0,0,1-3.8.86l-.46.07c.46-.27.9-.55,1.33-.83,1.08-.67,2.12-1.3,3.25-1.87a24.36,24.36,0,0,1,3.72-1.69c.82-2.39,6.19-1.56,7.48-3.33-1.66-.45,1.77-2.16,3.44-3.46.23.7,1,1.14,2,1.89A32.23,32.23,0,0,1,210.08,278.49ZM41.54,88.73c-.21.2-.49.5-.45.73.27,1.71-1.7,2-1.87,3.44-.12,1-.65,1.09-1.27,1a29.58,29.58,0,0,1,2.21-3.85A14.7,14.7,0,0,1,42,87.79,1.26,1.26,0,0,1,41.54,88.73Zm5.66-6.1c-.15.88-.73,1-1.49.61a5.58,5.58,0,0,0-.34.75c-.36,1.3-.68,1.59-1.75,1.42l-.12,0a9.58,9.58,0,0,1,1.8-2.57l.36.34a.73.73,0,0,0,.14-.86c.43-.43.88-.85,1.34-1.28A3.08,3.08,0,0,1,47.2,82.63Zm.59-2.88a1.62,1.62,0,0,0-.18.19,2.45,2.45,0,0,0-.73.74,4.1,4.1,0,0,1,1.44-2.13A1.86,1.86,0,0,1,47.79,79.75Zm1.89-2.1.53-.29A1.32,1.32,0,0,1,49.68,77.65ZM197.33,293.42c-.71-.82,1.51-.81,1.41-1.11C199.86,292.31,198.3,293.24,197.33,293.42Zm12.61-2.8c-.42-1.09,1-.51,2.14-1.19C212.17,289.89,210.54,290.21,209.94,290.62Zm-.28-4.14c-.27-.49,1.23-1.09,1.77-1C211.62,285.87,210.15,286.13,209.66,286.48Zm24.06-9.24a2.87,2.87,0,0,1,1-1c.16.25.32.5.67.28C235.46,277.06,233.76,278,233.72,277.24Zm9.41-6.16c-.58-.24.23-.77,0-1.07-2.44,1.43-4.16,3.76-6,3.18,2.18-1.16,2.46-2.25,3.54-3.78.48-.15.87,0,1.44-.46-.06.7-.41.8-1.14,1.3.75.39,1.72.06,2.89-.94C244.56,269.7,244.07,270.35,243.13,271.08Zm29.95-45.79c.29.44-.65,1.84-1,2.6C271.54,226.89,272.46,226.57,273.08,225.29Zm-4.88,5.52c.82.43-.57.85-.8,1.89C267.19,232,267.65,231.49,268.2,230.81ZM76.39,53.12c.07.06.16.16.15.18-.13.18-.25.23-.38.21C76.24,53.38,76.32,53.25,76.39,53.12ZM256.08,237.88l2.48-3.13a41.41,41.41,0,0,0,2.38-4c.24.17.47.34.68,0a16.61,16.61,0,0,1-1.13,2.9c-.25.51-.51,1-.79,1.52l-1,1.44c-1.37,1.9-2.86,3.72-3.94,5.19-.3.79.89.32,1.23-.32.28.61-.84,1.1-1.13,1.6-.32-.19-.12-.58-.47-.75s-1,1.25-1.49,1.72A15,15,0,0,1,256.08,237.88ZM266.59,244a34.32,34.32,0,0,1-3.63,3.41c-.07-1.47,1.71-2.57,2.64-4.5C265.93,243.27,265.93,243.79,266.59,244Zm-7.36,7.56c.32.68-.8.85-1,.94-.44-.22.47-.89.18-1.17C259.13,250.39,258.48,252.51,259.23,251.56Zm2.76-3.13c.24.47-.23,1.27,0,1.75-.76,0-1.76,2.42-2.48,2C260.89,251.36,260.6,249.61,262,248.43Zm-3.91-.27a28.54,28.54,0,0,1-2.1,3.44c-1.3-.19-.45-1.57.57-3.35s2.51-3.7,3-4.57c1.25-.83,2.1-.57,1.14,1.24-.09-.15,0-.4-.13-.51A42.14,42.14,0,0,0,258.08,248.16Zm.06,4.73c-1.26,2.26-5.36,6.4-5.15,4.65C254.79,256.83,255.65,254.47,258.14,252.89Zm3.46-11.46a.89.89,0,0,1-.26,1.47C260.83,242.67,261.31,242,261.6,241.43Zm-16.38,12.74c.15-.79,1.1-.43,1.82-1.43-.16-.12-.39.2-.59.35-.17-.25.59-.77.34-1-.58-.05-1.41,1.47-2.09,2,.2-1.66,2.59-3.93,2.91-5.17a.82.82,0,0,1,.94.8c.73.23.5-.53,1.18-.71.38-.85-1,.5-1.22-.17,1.61-1.88,2.18-2.14,2.41-3.43.87-.62.25.26,1.3-1.44,1.23.74-.94,1.9-1.12,2.82,1.47-.22,1.89-3.87,3-3a28.26,28.26,0,0,0-1.82,2.67l-2,2.8A17.39,17.39,0,0,1,245.22,254.17Zm6.49,5.45c.23.67.78-.33,1.22-.76a24.06,24.06,0,0,1-3.19,3.91c-1.5,1.41-3.19,2.93-4.52,4.46C245.84,264.44,249.64,262.7,251.71,259.62Zm-6.83,8.76a43.34,43.34,0,0,0,3.47-2.92c-2.12.64,2.7-3.41,3.42-3.44a14,14,0,0,1-3.58,4.06,12.16,12.16,0,0,0-3.11,3.52C244.4,269.32,245.05,268.76,244.88,268.38Zm.51,2.05c-.29-.71.74-1,1.3-1.19C247,269.65,245.63,270.37,245.39,270.43Zm17.58-16-.51-.41c-.08.15-.16.28-.25.43-.44.64-.92,1.28-1.42,1.94-1,1.31-2.08,2.67-3.24,4a40.4,40.4,0,0,1-7.8,7.38c-.25.3.11.45-.23.77a11.72,11.72,0,0,1-1.85,1.15c-.39-.52,1.05-1.44,1.78-2.21-.18-.23-.37-.45-.69-.2,2.35-2.48,6.73-6.82,9.24-11.44a6.46,6.46,0,0,1,2.63-1.47c.53-.89-.66-.25-.81-.64.47-.76,1.63-.76,1.45-1.53.74-.72.48-.13.86.22a15.33,15.33,0,0,1,2.12-3.69c-.35-.7-.89.7-1.35,1.19.06-1.33,1.71-3.17,2.64-3.73.79.23.16,2.14,1.38.54-.31,1.7-3.79,4.18-3.52,5.33,2-1.89,4.13-6.23,6-6.68C267.93,249.09,265.12,251,263,254.48Zm7.85-14.86c-.29-.23-.58.15-.87-.13.52-1.33,1.05-.6,1.56-1.93C271.63,238,271,239,270.82,239.62Zm3.88-9.17c-2.44,3.43-4.14,6.8-6.49,10.44.35.16.7-1,1-1,.53.39-.73,2.08-1.25,1.69-.2,1-.1,1.2.81,1.37-1.41.8-2,.66-2-.07s.82-2,1.88-3.74c-.4.1-.8.82-1.21,1.3-.62-.2.66-1.47.34-1.84.29-.38.58,0,.87.13,1.48-3.06,1.52-3.33,3.2-6.61.91,0,.85-1.55,1.88-1.76.29-.92-.9.72-.72-.38,1.32-2.07,1.68-1.62,2.47-4.23-.5-.31-.69,2.22-1.25,1.33a8.5,8.5,0,0,0,1.47-3.93,1,1,0,0,1,.79.76c.42-.83.19-1.18-.33-1.32a3,3,0,0,1,1.83-2.24C278.69,222.69,275,227.93,274.7,230.45Zm15.64-28.53c-.79-.74.15-1.8,0-3C291,199.12,290.29,201,290.34,201.92Zm5.4-8.63c.66,1.48-.58.17-.68,1.39-.24-.17,0-1,.09-1.52.27.09.54.18.66-.25A.21.21,0,0,1,295.74,193.29Zm-3-1.42.27-1.46.59.13C293.37,191.22,293.22,192.09,292.72,191.87Zm.14-1.86c-.5-.14-.26-1.31-.16-2.28l.6.11A5.38,5.38,0,0,1,292.86,190Zm-1.07-.34c-.33,2.33-.76,4.62-.81,6-.51-.69-.32-2.77,0-5.15s.58-5.14.7-7A23.77,23.77,0,0,1,291.79,189.67ZM299.06,178c-.79.14-.85.22-1.36-.55C298.15,177,299.17,176.45,299.06,178Zm-.44-2c-.22.22-.28.84-.66.69.15-.33.3-.65.06-.76.06-.41.4-.22.41-.73.16.23.32.44.59.45C299,176.16,298.62,176.65,298.62,176.07ZM136.72,13.32a.21.21,0,0,1,.19-.25.53.53,0,0,1,.28.07Zm163.54,157.1c-.27-.15-.17-1-.2-1.57-.23.05-.17.69-.2,1.15-.37.34-.67-1.2-.8-.05-.31-.4.64-1.52,1-1.88C300.12,169.45,300.6,169.06,300.26,170.42Zm-131.12-154c-.44.38-.92.62-1.5.09l0,0A11.06,11.06,0,0,1,169.14,16.37Zm124.1,131.91c.58,0,.69,2.09.47,2.62-.56-.21-.87-1-1-2.21C293,148.71,293.26,148.72,293.24,148.28ZM149.32,7.05l.69.08a1.39,1.39,0,0,1,.06.19c-.68.44-1.74-.1-2.83-.52C147.93,6.9,148.62,7,149.32,7.05ZM293.2,151.67c.74.22.11,1.5.48,3-.35,0-.37.47-.75.4A18,18,0,0,1,293.2,151.67Zm3.1,5.58h.59l.17,1.9C296.47,159.29,296.54,157.91,296.3,157.25Zm3.2.35c-.51-.83-.42.1-.3,1.16-.83-.46-.09-2.37-.11-3.49C299.53,155.31,299.32,156.92,299.5,157.6Zm-3-4.55a6.24,6.24,0,0,1,1.32,5.72c-.65-1-.17-3.68-1.77-4.18,0-3.19-.57-5.74-.33-7.25C296.84,148.51,297.08,151.61,296.5,153.05Zm-1.13-10.32c.2,2,0,2.73.7,4.19l-1,.08c0-2.1-1-4.75-1.06-7.21C294.87,140.61,294.38,142.19,295.37,142.73Zm-118-126.95c.62,0,1.25,0,1.9,0A2,2,0,0,1,177.37,15.78Zm4.36,1.61a1.1,1.1,0,0,1-1-1.29.27.27,0,0,1,.07-.14,18.85,18.85,0,0,1,3.26.77C183.6,17.4,183.06,17.49,181.73,17.39Zm33.41,6.19a1.37,1.37,0,0,0-1.17-.51,2.9,2.9,0,0,0,0-.51,4.87,4.87,0,0,1,2.63,1.68l-.36.68c-.65-.27-1.15-1.36-1.69-1C213.5,23,215.09,23.78,215.14,23.58ZM215,24.9a2.58,2.58,0,0,1-.34-.46c2.08,1.19,1.34,1.64,2.11,1.06a1.76,1.76,0,0,1,1.05,1.29C216.9,26.21,216,25.44,215,24.9Zm27.27,26.67a.52.52,0,0,1-.23-.21ZM209.64,20a.7.7,0,0,0,.07-.56c1.12.43.67.75,1.17,1.14-.2.15-.78-.25-1.28-.54C209.61,20,209.63,20,209.64,20Zm4.92,4.66-.11-.05a.75.75,0,0,1-.33-.27Zm-8.49-4.16a.71.71,0,0,1-.09-.45c0-.09.16-.19.27-.21a2.88,2.88,0,0,1,2.23.48.72.72,0,0,0,1-.11,6.48,6.48,0,0,1,.86.69c-.09.17.17.37.17.55-1.59-.93-1.79.15-.42,0l.62.43c-.44.42-.89.84-1.36,1.21a.88.88,0,0,1-.81-.22c-.32-.5-.37-1.28-.78-1.56S206.48,21.11,206.07,20.5ZM266.5,83.17c.08,0,.16,0,.23,0,.25.55.22.65.08.67C266.71,83.58,266.61,83.38,266.5,83.17Zm1,2s0-.11-.05-.25c.32-.26.79,1.1,1.17,1.52a2.22,2.22,0,0,1-.69-.29C267.76,85.83,267.62,85.5,267.47,85.18ZM284.13,106a17.77,17.77,0,0,0,1.15,2.9c-.06.73-.95.67-1.34-.76C285.47,108.82,283.21,106.55,284.13,106ZM192.32,15.46c-.24.07-.47.15-.54.41-.35-.15-.67-.26-1-.36s-.4-.31-.6-.48ZM288,114.18c-.46.44-.78-.46-1.25,0,.13-.66-1-2.48-.1-2.43-.86-.3-1-2.34-1.43-3.64C286,110.55,287.56,112.28,288,114.18Zm5.05,4.7c-.32.06-.4.41-.33.9-.43.06-.69-.84-.95-1.79.59.55.28-.39.87.17-.14-.74-1-2.22-.21-2A8.87,8.87,0,0,0,293,118.88Zm-1.66-4.5c-.93-.84-.71-1.4-1-2.62C291.27,112.6,291.06,113.17,291.35,114.38Zm-9.44-11.3a3.42,3.42,0,0,1-1.18-1.61C281.2,101.17,282,102.45,281.91,103.08Zm-4.14-3.71c-.76-.71-.65-1.33-1.56-2.67C276.75,96.48,277.75,98.77,277.77,99.37Zm-4.52-7.2c.75,0,.66,1.39,1.57,2.22C274.31,95,273.78,92.88,273.25,92.17Zm4.53,4.65c-1.18-.88-1.47-1.56-2.79-3.37.53.36,1.74,2,.86,0C276.84,93.56,277.05,95.61,277.78,96.82ZM267.75,83a29.54,29.54,0,0,0,4.66,5.32c.51.73-.26.63.1,1.26.45-1,2,1.54,3,3.23-.67.19-.9.42-1.21.17a3.89,3.89,0,0,0-1.23-2c.17,1.15-1.14-.68-1.55-.47-.3-.74-.15-.84.32-.61-1.86-2.2-3.29-5.45-5.18-7.62.22-.07.74.35.49-.3-.26.86-.79-1-1.1-.67.11.48-.09.48-.38.31-.44-.81-.86-1.62-1.34-2.42.31-.67.92,1.4,1.26,1-1-1.39-1.83-4.16-2.76-4.14.88,1.47,1.41,1.94,1.44,3a.54.54,0,0,1-.07-.13c-.82-1.25-1.7-2.5-2.67-3.74a1.23,1.23,0,0,0,.29-.81s0,0,0,0a4.08,4.08,0,0,1,2.27,2A9.92,9.92,0,0,0,266,79.06a1.63,1.63,0,0,1,0,1.39c.89.2,3,3.12,3.32,3.83C268.85,84.75,268.21,82.85,267.75,83Zm13.53,13.56C280.78,95.17,280,95,280,94,280.56,93.26,282.24,96.59,281.28,96.51Zm-1.79-3.1c.16-1-.52-2.56.11-3.16C280.12,91.73,280.62,93.2,279.49,93.41Zm-21-24.11c-.24-.2-.47-.39-.69-.55a1.53,1.53,0,0,1,0-.44A4.85,4.85,0,0,1,258.49,69.3ZM244,54.5l-.08-.15a3.53,3.53,0,0,1-.25-1.51l1.36,1.34a35.84,35.84,0,0,0,3.12,2.66c-.19.23-.51.42.11,1,.25-.15.41-.59.81-.25A9.44,9.44,0,0,1,250.59,60a42.28,42.28,0,0,1-5.15-4.31C245,55.31,244.5,54.9,244,54.5Zm9.43,9.06a5.07,5.07,0,0,1,1,1.08C254.13,64.29,253.79,63.92,253.46,63.56Zm3.85,3.31a.5.5,0,0,1-.11.17c-.39-.29-.88-.7-1.39-1.15a9.4,9.4,0,0,1-.89-1.67A31.87,31.87,0,0,0,257.31,66.87Zm-4.68-5.76c.15,2,.15.79,1.49,2.78a1.46,1.46,0,0,0-.9-.6,12.22,12.22,0,0,1-1.43-1.94l.82.3a7.2,7.2,0,0,0-1.07-.89c0-.06-.06-.13-.08-.18l-.29-.19a.58.58,0,0,1-.12-.45C251.6,60.43,251.92,60.09,252.63,61.11ZM218.5,26.54l1.41,1-.13,0a3.43,3.43,0,0,1-.65-.16C218.57,27.07,218.08,26.76,218.5,26.54Zm8.1,6.09-.79-.15-.37-.24a6.53,6.53,0,0,0-.87-.05A3.72,3.72,0,0,1,224,32a.76.76,0,0,1-.11-1.19,1.5,1.5,0,0,1,.32-.19l.1,0c.46,1.12,1.88,1.6,2,1.25C226.66,32.29,226.7,32.5,226.6,32.63Zm1.5.18a2.32,2.32,0,0,1-.27-.29,2.54,2.54,0,0,1,.8.29Zm3,2.39a6.5,6.5,0,0,1-.36-.9c.47.46.81.91.79,1.22Zm1.06.8a5.68,5.68,0,0,1,2.13,1.13C234.14,37.92,232.48,36.6,232.17,36Zm6,5.22v0l.06,0Zm-.79-.64-.87-.66a9.41,9.41,0,0,0-2.12-2.24C235.45,37.26,237.08,39.51,237.38,40.58Zm.18-1.18c-.31-.55,1.31,1.06,2.51,2C239.19,41.67,238.05,40.26,237.56,39.4Z"/><path class="cls-2" d="M385.8,69.48l-9.71-8.68c-.78-.7-1.57-1.39-2.34-2.07l-2.41-1.87-4.66-3.59c-1.72-.41-5.64-4.56-7.83-4.2a11.52,11.52,0,0,0-4.36-2.92c1.29-.46-2.06-1.37-1.28-1.89-1.78-.61-3.22-2.53-4.25-2.33,2.05,1.45,3.69,1.81,3.9,3-1.92-1.42-4.32-2.25-5.29-3.83-1.69-.78-5.14-1.59-6.16-3-.53.73-1.88-1.12-3-1-.27.24.35.72-.21.54-1.56-.31-3-1.92-4.32-2.07.43.23.83.46.59.71-1.15-.4-.95-.82-2.1-1.21-.34.55,1.45,1,2,1.57,1-.22,5.1,1.73,5.44,2.41-1.35-.29-1.92-.06-2.93-1.21-.44.37.57.71.44,1.06,1.19.58,1.45,0,2.71.68-.43.37-1.3.18-1.85.38,1.25.67,1.24-.24,2.41.33.21.5-1.3.07-.29.71a1.08,1.08,0,0,1,.56.08,1.54,1.54,0,0,0-.17.31c-.08.26-.14.51-.21.77a.44.44,0,0,1-.05-.45,4,4,0,0,1-2-1.22c-.17.45,1.26,1.38,2,1.84-.15.55-.3,1.1-.48,1.64,0,0-.14.06-.28.06a7.15,7.15,0,0,0-1-.53A1.49,1.49,0,0,0,337.5,43c-1.09-.48-2.07-1-2.34-1.91-1.3.39-5.79-2.18-6.63-3.23-.26.38-1.08.3-1.95,0a7.12,7.12,0,0,1-.58-.64c-.24-.32-.54-.2-.75.14-.69-.32-1.21-.67-1.16-.84-.78,0-1.6,0-2.43-.09l-1.43-.64a.39.39,0,0,0,.11-.06c-1.64-.66-3.21-1.21-4.78-1.71l-.09,0a68.82,68.82,0,0,0-10.82-2.72c-1.49-.44-3-.92-4.74-1.47,0,.34-.35.45-.81.44-1.21-1-3.39-1.06-5.23-1.19a11.26,11.26,0,0,0-3.16-1.21.86.86,0,0,1,0-.28c-.74-.13-.93-.05-1,.08l-.94-.13c-1.33-.19-2.7-.3-4-.45a23.74,23.74,0,0,1-3.87-.54c-3.87-1-7.79-2.08-11.77-2.83s-8-.87-11.88.27c-.93.05-.2.84-1,.95a63,63,0,0,0-9.62,1.1c-3.34.74-6.79,1.37-9.94,2.09-4.51.88-9.2.91-13.46,2.73a28.36,28.36,0,0,0-6.15,3.63,14.72,14.72,0,0,0-3.76,4.71c-3.84,1.43-6.25,6.48-10.6,6.88-.51.67.09,1.39-1.23,2-.86.54-1.12.12-1.68.21.64,1,.95.47,1,1.58,2.22-1.86,3.52-2.35,5.18-4.41a6.37,6.37,0,0,0,2-.61A60.7,60.7,0,0,1,224.57,33c6.89-3.1,14.94-3.34,19.72-5.87,1.27-.08,1,1.06,2,1.22,2.6-1.41,5.38-.24,8.68-.93,2.34-.39,4.18-1.93,6.93-2.16a39.94,39.94,0,0,1,7.52.51,73.72,73.72,0,0,0,8.15,1.06,3,3,0,0,0,.34.25c-1.38.07-2.53,0-4.64.15-.15-.46,1-.15,1.07-.52a42,42,0,0,0-4.36.08,10.25,10.25,0,0,1-3.82-.58c.23.93-1.89.7-2.05,1.42,2,0,4.53,0,5.61,1.13-1.55.39-2.33-.72-2.94-.17a9.35,9.35,0,0,0,4.71.4,20.25,20.25,0,0,1,5.16-.13c0,.27-.15.42-.34.57a10.2,10.2,0,0,0,4.37-.06c.43.12.88.19,1.32.28a1.48,1.48,0,0,0-.59.23c.53.2,1.1.39,1.59.61a.77.77,0,0,0-.48.23c.36,0,.71,0,1,.08a1.6,1.6,0,0,1,.53.54,18.4,18.4,0,0,0-5,2.18,5.92,5.92,0,0,1-1.19-.41l0,.6a3.85,3.85,0,0,1,.79,0l-.63.38-.5,0c0-.31-1-.73-.71-.06.47,0,.69.15.74.38h0a7.86,7.86,0,0,1-1.93.42,16,16,0,0,1-2.19-.66c-1-.19-2.17,1-1.77,2A9,9,0,0,1,272,37c-.57.15-1.17.28-1.82.39a5.49,5.49,0,0,0-2.45-2c-.16-.07-.48.25-.69.43a.46.46,0,0,0-.06.41s.05.1.08.16a2.7,2.7,0,0,1-2.6-.07.9.9,0,0,0,.44.79A11.37,11.37,0,0,1,267.3,37c.05,0,.1.1.14.1a2.73,2.73,0,0,1,1.29.41,33.91,33.91,0,0,0-6.11.32l-1.17.24v-.19l-.45-.06a2,2,0,0,0,0,.35,26.86,26.86,0,0,0-3.3,1c-.54,0-1-.06-1.48-.11s-.92.15-1.39.26a88.54,88.54,0,0,0-52.38,18.17A23.31,23.31,0,0,0,196.94,60a27.84,27.84,0,0,0-5.24,4.11c-3.61,0-7.44,3.38-10.73,7.08l-2.44,2.74c-.77.92-1.51,1.81-2.24,2.61a15.13,15.13,0,0,1-4.24,3.5c.6,3.94-5.58,9-8.32,10.22.57,1,.12,2.23-.72,3.35a19.85,19.85,0,0,1-2.92,3.06c-.37-.25.32-2.29-.76-.53-.6.76-.18,1-.28,1.58-1.06.36-2.08,1.08-3.1.91-1.1,1.48-.62,2.12-1.72,3.6a3.32,3.32,0,0,1-.32-2.54c1-2.56,2-2.35,3.08-3.35-.67-.38-1.32.27-.75-1.11,1.95.53,1.36-3,3.46-3.06a2.84,2.84,0,0,0-.58,2c.8-1.81,1.91-3.87,2.65-5.44-.3.43-.86.94-.54.21a63,63,0,0,0-14.68,20.83,112.84,112.84,0,0,0-7.44,24.67c-.93.72-1.53,2.52-2.17,4.19-.23,5.32-.78,9,2.19,11.05.74-6.08.81-11.08,3.55-20.45,1.28-1.69,2.82-2.76,4.59-2.52-1.23,7.59-5,15-5.07,22.58,0,1.08.38,1.59.3,2.59-.44,6.12-1.29,9.11-1.72,13.3-.81,8.14.53,17,1.44,25.22.23,1.8-.84,3.77.76,5.57-.08-2.27-.19-4.63-.48-6.82a35.33,35.33,0,0,0-1-5.82c.15-2.33.34-5.48.28-8.71.14-3.24.05-6.59.22-9.33.33-1.34.6-2.63.81-3.89s.48-2.48.66-3.71c.31-2.45.62-4.84.94-7.3a69.72,69.72,0,0,1,3.55-16.21c1.71-.11,1.82-1.68,2.59-3.64,1.65.76,2.8-.46,3.72-2.58,0-1.41-1.41.3-1.27-1,.94-1.07,1.89-2,3.17-1.7-.44,1.15-.74,2.54-1.33,3,1.49.14,2.22-2.58,3.86-1.85a61.81,61.81,0,0,0-1.25,6.55c-.22,2.19-.44,4.33-.61,6.46A78.13,78.13,0,0,1,155.21,152c-1,1-2.21,1.34-3,2.64,1.13,1.17,2.23-2,3.58-2.06a33.55,33.55,0,0,1,.44,4.73c0,.5.1,1,.16,1.47,0,.07-.07.14-.11.2-.74,1.24-1.51,2.75-.82,4.32a6.72,6.72,0,0,1,.27.79,35.21,35.21,0,0,0-.18,3.9s0,.1-.06.16a3.78,3.78,0,0,1,.06.47c0,.24,0,.49,0,.73a5.72,5.72,0,0,1-2.15,3.53,1,1,0,0,0-.07,1.25,2.3,2.3,0,0,1,.3.88c.05.7.45,1.66-.86,1.55a2.21,2.21,0,0,0,.08,2.14c.58,1.27.77,2.41-.34,3.37a1.09,1.09,0,0,0-.35.78c.12,1.54-.42,3.12.42,4.62.55,1-.17,1.37-.55,1.93.11.28.31.6.23.76a13,13,0,0,0-1,6.69,8.59,8.59,0,0,1-.31,3.63c-.63,1.63-1.51,3.42.57,5.07.27.21.22.9.24,1.37,0,.78,0,1.56,0,2.34,0,.38.25,1-.52.93-.52-.06-1.26.33-1.41-.69a1.62,1.62,0,0,0-.38-.84,2.52,2.52,0,0,0-.8-.41c0,.15-.06.3-.08.45a3.85,3.85,0,0,0,1.18,3.33c.48.43.91.62.93,1.3,0,1.08.19,2.18-.68,3-1,1,.34.88.63,1.33a4.53,4.53,0,0,1,.88,3.06,5,5,0,0,0,0,2.52,16.42,16.42,0,0,1-1.44-2.47c-2.6-5.2-3.63-12.54-6.21-17.69,1-2.14-.83-1.46-.51-4.61-.71-.3-1.91-1-2.15-.2-.3.16-.32.63-.34,1.11,1.41,2.94,1.44,5.4,3,7.94.41,7.93,3.22,15.06,7,22a1.56,1.56,0,0,1-.42.43,1,1,0,0,0,.78.23l.24.44,1.16,2a9,9,0,0,1-.32,1.34,2.33,2.33,0,0,0,.67,2.51c2.28,2.36,2.24,2.4,1.53,5.55a4.93,4.93,0,0,1-.29.72,1,1,0,0,1,.08,1.33c.59.5,1.91.23,1.67,1.68a5.6,5.6,0,0,0,.16,2.33c.09.32.17.62.23.92a1,1,0,0,0-.26-.18l.34.61a3.1,3.1,0,0,1-.08,1.27c-.25,1,.95,1,1.67,1.24.31,2.29,3.23,3.18,3.3,5.6a18.15,18.15,0,0,1,2.67,2.82c.75,1.21,1.18,2.56,2.41,3.48a1.8,1.8,0,0,1,.51,2.49,1,1,0,0,0,.34.78c1.18.29,1.59,1.28,2.13,2.16,1.89.29,3,1.79,4.2,3.06s2.84,2.22,3.08,4.2c0,.37.7.67,1.17.48s1.08-.52,1.67.1.92.92,1.4,1.36c2,1.78,3.62,4.11,6.32,5,.34.11.59.71.8,1.11s0,.92.73,1c1.06.08,1.65.92,2.28,1.65,1.34,1.54,2,2.18,2.91,2.47a10.75,10.75,0,0,0,4.08.94,2.62,2.62,0,0,1,1.77.41,9.88,9.88,0,0,0,3.62,2.22c1.6,2,3.88,2.66,6.09,3.47.28.1.8.27.84.2.87-1.58,2.45-.38,3.62-.69s2.35-.7,3.52-1.09l1.59.74a.3.3,0,0,0,.39.19c.52.25,1.05.52,1.57.8a1.93,1.93,0,0,0,1.57,2.12,18.82,18.82,0,0,1,4.1,2.22c.44.28.84.51,1.26.31.6-.3,1-.45,1.29.46.26.72,1.11,1.34,1.18,2,.18,1.65,1.67,1.18,2.44,1.81.4.32.91-.25.94-.66.09-1.08,0-2.19,0-3.27s-.59-1.08-1.32-1.45a10.74,10.74,0,0,1-3.36-3.38c-.08-.1,0-.29,0-.44.16,0,.37,0,.46.05,1,.87,2.13.39,3.15.76.48.18.24,1.49,1.05,1.07a3.58,3.58,0,0,1,3.52.24c1.41.69,2.82,1.38,4.26,2,1.59.66,3.22,1.21,4.83,1.82.44.16,1,.27,1.26.59a4,4,0,0,0,3.79,1.54c1.48-.14,2.34.7,3.25,1.67.55.58,1.07,1.27,2,1.26,1.73,0,3.26.91,4.9,1.29.72.17.12-.53,0-.87a5,5,0,0,1-.12-.79c.15,0,.37,0,.46.09,1.3,1.36,3,2.34,3.65,4.34.46,1.38,1.74,2.11,3.26,2.53,2.49.7,2.86.82,4.79-.07,1.62-.75,2.07-.73,3.3.43,1.06,1,2,2.16,3.65,2a1.26,1.26,0,0,1,.91.18c1.58,1.62,3.49,1.32,5.33,1.37,1.39,0,2.84.43,4.1-.35,1.5.6,3.06.49,4.58.76,1.7.3,3.19-1.05,4.91,0,.27.17.46-.13.28-.55s-.38-.52-.49-.81a3,3,0,0,1-.09-.32c.93-.07,1.91-.19,2.87-.3-.8,0-2-.33-3.07-.51a1.74,1.74,0,0,0-.1-.19c-.47-.64-1-.44-1.6-.13a1.7,1.7,0,0,1-1.34.09,5.76,5.76,0,0,0-.76-.27l.2-.14a1.53,1.53,0,0,0-.58,0c-1.46-.37-2.94-.23-4.39-.58-1.05-.26-2.39-.24-3.07-.9-.84-.81-1.12-2.19-1.65-3.32-.19-.42-.41-.84-.59-1.26a.81.81,0,0,1-.05-.46c.1-.61,0-.22.43.08a1.59,1.59,0,0,0,2.38-.27c.67-.71.83-.16,1.15.51.5,1,.9-.1,1.39-.11s.73.17.45.5c-.94,1.09-.06,1.38.77,1.75a2.71,2.71,0,0,0,1.51,2.27.56.56,0,0,0,.45.1c.09,0,.12-.25.12-.39a3.23,3.23,0,0,0-.14-1.38,2.91,2.91,0,0,1,.44-4.08,2.38,2.38,0,0,0,1.56-1,1.87,1.87,0,0,0,.83,1l-.25,0,.44,0a2.05,2.05,0,0,0,.79.12c.33,0,.61.37.8.8-.28,0-.57.07-.89.13-.32-.81-2.61-1-2-.19,1.23-.94.6.67,1.08.69a6,6,0,0,1,2.06,0,29.85,29.85,0,0,0,1.36,2.93c.81,1.49,1.93,2.58,3.76,2.33a4.12,4.12,0,0,1,4,2c.29.38.71.67,1,1.06a4.44,4.44,0,0,0,.44.43,5.56,5.56,0,0,1-.66.37,4.47,4.47,0,0,0,1.07-.07,2.77,2.77,0,0,0,.37.22,29,29,0,0,1-6.84.85l-5.9.14a41.38,41.38,0,0,0-5.19.08c.63,0-1.38.58-2.4.25,1.19,1.2,5.14,1.47,7,2.83a5.67,5.67,0,0,1,3.34.71,3.08,3.08,0,0,0,1.37-.35c.83,1.59,8.91.2,8.3,1.47a19,19,0,0,1,4-1.49c0-.5-.76-.29-.62-.9,1-.17,1.74-.41,1.95-.82-2.12.35-2.13,1.37-3.87,1.81.1-.74-1-.88-1.56-.41-.37.76,1.22,0,1.2.45-.55.09-.14.54-1,.53.47-1.16-2.93.43-4.07-.32a.78.78,0,0,1,.53-.87c2.62,0,1.25-.56,2.26-1.08,1.07-.23,1.05.42,1.89.37,0-1,1.8-1.33,3.23-1.43a20.41,20.41,0,0,0,4-2.67h.33a28.47,28.47,0,0,0,3.55-.45c.29,0,.4-.37.12-.68-.63-.71-1.14-1.75-2.12-1.85-1.33-.13-2.81-.67-3.88.59a1.44,1.44,0,0,1-1.22.37c-.57-.12-1.13-.26-1.7-.41a1.27,1.27,0,0,1,.14-.3,2.88,2.88,0,0,1-.69.17l-2.67-.7c-.61-1.25-1.28-2.48-1.81-3.76a2,2,0,0,0-.82-1.08.89.89,0,0,0-.4,0c-.13,2.17-1.79.9-2.79,1a2.27,2.27,0,0,1-1.8-1c.44-.94,2.13.22,2.57-.9a3.08,3.08,0,0,0,.43,0,13,13,0,0,0,4.15.13c1.56-.19,3-.42,3.78-.44-.22-.09,0-.75.25-.85,1.15.29,3.74-1.65,2.86-.41,1.2-.17,1.28-.72,1.6-1.18-2.4,1-4.9,1.11-6.27,2.18-1-.61-2.6-.07-4,.17a8.59,8.59,0,0,1-1.39.15,3.33,3.33,0,0,0,.27-.57c0-.06-.11-.27-.2-.3a6.75,6.75,0,0,1-.91-.24c-.42-.21-.88-.49-.73-1a1,1,0,0,1,.89-.85,8.82,8.82,0,0,0,1.24-.26c.37.3.73.75,1.13.84a1.69,1.69,0,0,0,1.17-.42,11.64,11.64,0,0,1,1.42-1.12c-.11.29-.37.49.44.27a2.78,2.78,0,0,1,.74-.52.87.87,0,0,0,.32-.16c1.65-.74,4.21-1,5.28-1.73l-2.77.49c.33-.31.66-.63,1-1a.51.51,0,0,0,0-.42c0-.06-.21-.12-.3-.11a1.5,1.5,0,0,0-1.35,1.34.45.45,0,0,0,.07.26l-1.52.25c.06-.5.08-1.05.49-1.32a5.7,5.7,0,0,0,1.14-1.11,6.22,6.22,0,0,0,2-.2c-.26-.49,1.09-.41.62-1a.68.68,0,0,0-.42-.32,4.81,4.81,0,0,0,2.21-1.61,1.61,1.61,0,0,1,2.35-.38,2.16,2.16,0,0,0,1.82.15c.21.32.75.41,1.36.4-.71.65-.26,1.61-1.4,2.16a1.66,1.66,0,0,1,1.31,0c0,.49-.94.77-.79,1.32a8,8,0,0,1,4-.86c-.44-1,1.54-1.25,2.09-1.33-.13.64-.92,1-1.88,1.05.92.67-1,.63-.48,1.22,1.3-.15,3.51-3.37,5.66-2.42-2.67.78-2.76,1.84-4.15,2.79.05,1.24.75,1.56,1.7,1.54l-.24-.53c.59-.28.85-.13,1.29-.21-.11.23-.22.46.17.37.14.49-.58,0-1.15.36,1.17,0,2.68-.54,3.86-.51,2.36-1.32,6.63-1.93,8.21-3.4-1,.19-2.83,1.39-3.66.51.13-1.16,1.94-.3,1.81-1.25-1.38.32-1.7,1-2.57.47.37-.17.09-.43.37-.61,1.18-.28,2.63-.34,2.92.13-.11-.32,1.11.14.81-.46-.51,0-.73-.39-1.07-.64-1.37.68-2.43.81-3,.24,1.21-1.46,2.84-1.61,3.94-2.51a6,6,0,0,0,1.84.38c.56,0,.78-.33,1-.75s-.14-.93.5-1.06a11.08,11.08,0,0,1,2.61-.56,13.34,13.34,0,0,0,5.7-1.06h.05a.65.65,0,0,0,.08.27c-1.4,1-2,2.18-3.84,2.71a1.3,1.3,0,0,0,.48,0c-.93.59-1.87,1.2-2.81,1.85.35,1.43.87-.93,1.57-.12-.38.64-2.43,1.9-3.07,1.33a12,12,0,0,0,1.63-.65c-.44-.21-1.14.09-1.8.32,0,0,0,0,0,0l-.08.05a2.12,2.12,0,0,1-1.12.16c-.07.24-1.3,1.14-.55.93l.11-.06c-2,1.21-4,2.09-5.89,3.08a22.11,22.11,0,0,0-6.46,4.12,2.84,2.84,0,0,0-3,.6,15.07,15.07,0,0,1-7.23,1.44c.18,1.39-2.81.18-3.72,1-.21-.25-.48-.24-.19-.58-2,1.75-4.4-.37-7.1.9,1.39-.14-.88,1.31,1.53.71.31-.53-1-.56-.22-.78.25,1.2,2.8.41,4.07,1.2,1.43-1.47,3.54-.8,6-1.35.37.3,1.35,1.3,1.9.47-1.23.49,0-.75,0-1.05a17.51,17.51,0,0,1,3.73-.62,4.92,4.92,0,0,0-.69,1.52c.29-.1.52-.21.79-.31.16.17.25.23.18.69,1.54-.23,1.38-.84,2-1.28.09,1.4,3.81-.69,5.2-.43-.25-.39,0-.66.66-.92,0,.31-.22.47.26.55,5.76-2.61,10.81-5.26,15.89-7.84,1.3-1.52,5.72-4.8,6.7-2.95,6.26-3,11.57-7.71,17.29-12.45,1.08-2.44,3.6-4.26,5.36-5.71-.26.21.11-.83.72-1.11,2.25-1.07.05,2.31-1.41,3.62,1.19-1.22,1,.93,1.1,1.52-2.35,2.91-4.62,4.92-6.68,7.52-.7.52-1.16.21-1.91.88-.51,1.55-2.61,1.5-3.85,2.7-.73.67-.74,1.79-1.52,2.39s-2.21.58-3,1.14c-.45.33-1,1.19-1.39,1.5,0,0-.06-.46,0-.52-.82.59-.88,1.33-1.56,1.87-.12.09-.56-.35-.65-.33-1.25.34-1.91,2-3,2.74-1.18,0,.46-1.35-.87-.68.32.62-1,1.24-1.19,1.87-1.45-.47-3.27,2-3.49.82a35.67,35.67,0,0,1-3.48,2.54,34.4,34.4,0,0,1-3.7,1.95c.38-.13.5.13.61.4a14.31,14.31,0,0,0-4.21,2.31c-.09-.19.15-.33.13-.51-1.75.81-3.35,1.65-4.87,2.19a36.73,36.73,0,0,1-4.12,1.23,3.88,3.88,0,0,1-.67,1.07c-1-.22-1.15.06-1.57.72-.81-.14-.83-1-1.63-.33,1.34.17-1,1-1.68,1.38-.15-.37-1,0-1-.55-.27-.41.87-.51.77-.88-2.14.73-1.93,1.29-1.74,2.24.9.07,2.24-.35,3.21-.36.2-1.28,4-1.76,5-1.61-.43.15-.16.43-.5.59-.15-.2-.17-.55-.57-.45-1.45,1.79-3.82,1.81-6.51,2.5,1.06.5-.42.77-.18,1.54,2.66-.83,5.31-1.75,7.74-2.46-1.21,0,.75-.87,1-1.19.75.07,2.89,0,3.25-.44-.41.11-.5-.17-.59-.44,1.8.42,3.58-.83,5.55-1.36-2.07.77-.92.82-2.31,1.66,1.54-.36,2.46-.47,3.14-1.58l.28.55a24.84,24.84,0,0,1,5.49-2.45c1.06-.39,2.15-.78,3.18-1.26a17.68,17.68,0,0,0,2.77-1.77c.18.18.26.53.64.35,2.78-2.46,8.25-4,9.3-5.7.59.57-.73,1.74-1.74,1.8,1,1.05,2.17-.88,2.79-1.54,0,0,.29.29.25.33,1-1,1-2.09,2.11-3,1.47-1.2,2.57-.67,4.36-2.41-1.21-.31,2-1.58,2.42-2.57-1.55,1.09-.86.28.32-.68s2.67-2.25,3.14-1.72c-.91.72-.68,1.22-1.16,1.86,1.39-1.34.91-.52,1.74-.17,1-1.21,1.55-.91,2.39-1.58-.58-.37-1.58.63-2.28.65a2.41,2.41,0,0,0,.65-.85c.77-.36,1.89,0,1.84-1.12a.85.85,0,0,0,.83.37c-1.94,2.09-3.26,3.54-4.66,4.83a33.24,33.24,0,0,1-5.48,3.47,18.47,18.47,0,0,1-4,2.91,18,18,0,0,0-4,3.12c-.26-.3-1.1.48-1.28,0-3.54,2.73-8.73,3.39-11.24,6.28,1-.36,2.11-1.24,2.45-.77-.95.57-5.28,3.19-4.94,1.45a10.94,10.94,0,0,1-2.52,1.35c-.1,1,1.72-.73,1.93-.19-1.43.75-4.6,2.57-6.21,2.06a61,61,0,0,1-8.23,3,29.28,29.28,0,0,1-7.06,1.35c.15,1.05-.84-.21-1.52,0-.81.45.67.86,0,1-.36.08-.37.25-.65.35-1.3.48-1.42-.18-2.31-.1-.25.63-2.06.84-3.42,1.16-.72-1.4-3,.07-4.43.31a76.83,76.83,0,0,1-9.73.87c-3.32.15-6.44.47-8.81.53,3.8.42,4.92-.35,8.16.27a30.31,30.31,0,0,1,7.05-1,50.36,50.36,0,0,0,7.35-1.13c.09.5.74.48,1,.82-.33.38-1.26.59-1.61,1,1.53.12,4.94-1.89,7.65-1.27,0-.66,1.24-.59,2-.77.66-1.64,5.85-3.21,7.93-3.6.08.38-3.12,1.05-1.91,1.05,1-.33,2.09-.7,2.32-.11-.57.3-2.13.43-2,.87,1.22-.09,3.33-1.18,3.27.21,1.52-.35-.79-.56.71-1.1.14.12.39.12.78-.05.83.71-.22,1.12-.46,1.66,1.8,0,1.54-.83,1.49-1.14,1.32.12-.58,1,.52,1.11a13.76,13.76,0,0,0,4-1.16,1.05,1.05,0,0,1-.86-.07c.66-.15,1.14-1.15,1.7-.74-.39.2-1,.39-.93.63,2.15-.31,5-2.12,6.59-1.78.69-.61-.91-.27-.06-.87,1.79-1.12,2.1-.16,3.44-.66,0-.34-.93-.74-.18-1,1.26-.43,2.94-2,3.25-1-.26.32-2.37,1.53-1.4,1.26,1.61-1.35,3.11-1.68,3.43-2.87,1.42-.53.36,1.07,1.63.49.37-.36-.39-.69.19-1.06.63.08,4.49-1.16,2.47-.95a30.28,30.28,0,0,0,3.62-1.89c-.12-.28-.55-.55-.16-.86a41.48,41.48,0,0,0,7.28-4.78c2.19-1.71,4.34-3.31,6.61-4.81-.13-.36-.76,0-.41-.47,1.74-1.1,3.19-2,3.65-3.54a.76.76,0,0,1,.15.7,11.08,11.08,0,0,1,3.79-2.91c-.16,1.27-2,2-1.42,3.27,1.81-1.81,1.42-3.78,3.83-5.5,0-.67-1.24.1-.6-.58,1-.58,1.17-.83,1.41-1.66.49.5,1.28-.27,2-.65,1.37-2.67,4.28-3.84,5.09-6.68a45.85,45.85,0,0,0,3.29-3.44c1-1.33,2.07-2.76,3-4.19a57.45,57.45,0,0,0,4.58-7.86c.63,0,1.22-1.64,1.8-1,.4-2.22,2.06-2.59,2-4.38-.24.38-.48.73-.71.43a13.86,13.86,0,0,1,1.06-2.35c.3.13.6.4.89-.34-.58-1.68,2-3.61,3-5.07-.31-.29-.6.25-.89.36.6-1.3,1.45-3.84,2.56-3.66-.18,1-1.3.8-.92,1.61.25-.45.57-.19.84-.41.57-4.21,3-9.16,4.16-11.52.36-.89-.15-1.59,0-2,.39-1.08,1.51-1.63,1.79-3.67,0,.38.17-.5.43-1.42.11-.36.82-4.21,1.87-4.86.54,0-.55,2.88.06,2a7.9,7.9,0,0,1,.84-2.87c-.54,0-.61-.55-.47-1.13a3.21,3.21,0,0,1,.69-1.53c.09,1.26-.34,2.88.15,3.56.42-2.31.28-6.85,2-6.07-.2-.06-.12-.71.15-.74.18,1.64.72,1.15.91,2.6a16,16,0,0,1,.94-6.82c.53-2.09,1.14-4.13.08-6.58.39,0,.39.51.75.53.15-1.18-.5-1.2-.11-2.74.36.16.48-.35.83-.24a8.62,8.62,0,0,0-.13-2.73c-.08,1.7-.57,2.35-1.26,2.49.56-2.47-.22-3.84,1-6-.33,1.49.49,1.23.15,2.72.51-.3,1.27.07,1.34-1.35-.29-.11-.75,0-.76-.5.83.39,1.71-4.58,1.67-6.76-.74-.49-.58.9-1.2.65a5.79,5.79,0,0,0,.22-2.29c.48.85.42.59,1.19.49.18-1.23-.65-.59-.59-1.6.76.11.42-2,1-2.26-.66-1.74-.11-2.2.4-1.93-.55-1.51-.37-2.09-1-3.16.39-.63.25.05.79,0a4.6,4.6,0,0,1,.17-2.73c-.23-.6-.6-1-.88-1.56.35-.7,0-1.59.56-.39,0-4.33-2.36-5.7-2.09-7.76-1.48-.19-1.08-2-.75-3.46-.5-.5-.63,1-.78.05a5.75,5.75,0,0,0-.23-3.47c.56-.39.71.55,1.11.68-.47-.83-.33-2.09-.61-2.29a1.64,1.64,0,0,1-.38,1.21c-.15-.91-.53-1.1-.61-2.28l.59-.07c-1.66-3.12-1.58-7.77-2.75-9.06-.41-1.19.34-.87.27-1.62-.27,0-.39.25-.5.48-.53-.87-.4-5.58-.75-3-.42-1.8.18-2.49-.57-3.47.19.89-.27,1-.57.12.43.48.68.16.35-.88a5.39,5.39,0,0,1-1.11-1.75c.81.89-.17-1.82-.48-2.3.05.3.22.74,0,.8-.3-.74-1.29-2.66-1-3.38.33.16.46,1.44.83,1.4-.05-1.36-.76-1.61-1.28-2.9,1-.91-2.2-3.41-.95-4.23a8.11,8.11,0,0,0,1.8,3.67c.65,1,1.17,1.89.69,3,1.08-.22.83,1.22,1.65,2.83.47-.59.63.48,1,.57-.36-1.8-.52-1-.82-1.43.1-.41-.35-1.41.23-1.29.16.45.29,1.1.53,1.1-.62-1.54-.63-2.4-.24-2.82a13.63,13.63,0,0,1-1.07-2.94,38.92,38.92,0,0,0-1.78-4.57c-.59-.59-.37.7-1-.5-1.1-5.15-4.33-9-5.84-12.74-.9-.5-.69,1.1-1.59-.6-.19-1,.29-.91.87-.84-2.33-3-2.36-5.57-4.39-9-2.25-.67-3.78-6.13-6.2-7.54,1.21,1.43,2.49,3.46,2.41,4.6-1.39-.94-4-4.75-2.63-4.94-1.74-1.48-1.52-3.85-2.89-3.83.85-1.09-1.92-4.74-3.83-6.57.28.27-.18-.6-.82-1.39-1.67-2.07-3.45-4.43-5.3-6.69a52,52,0,0,0-4.72-4.6A1.42,1.42,0,0,1,392,79l-5.56-4.89a.14.14,0,0,0,.15-.12,18.43,18.43,0,0,1-2.25-1.71c-.62-.54-1.24-1.08-1.87-1.61a17.44,17.44,0,0,0-2.23-3.31c.59.53.72-.05,1.43.79a8.91,8.91,0,0,0,4.07,3.28c.5.68.37.83-.12.7,3.65,3,5.68,5.87,9.29,8.33-1.23-.29,2.31,3.25,2,2a91.35,91.35,0,0,0,5.81,7.79c1.1,1.32,2.23,2.61,3.34,3.77.56.58,1.11,1.13,1.64,1.64s1,1,1.46,1.46c-1.23-1.58-2.95-4.83-4.59-5.73,1.24.25-1-1.51-1.38-1.5l.46-.35C398.45,82.43,392,75.83,385.8,69.48ZM268.11,27.8c.22-.7,1.27-.24,1.84,0C269.89,28.25,268.35,27.91,268.11,27.8Zm-5.37,277c-.11.07-.52-.17-.67-.36a1,1,0,0,1-.14-.37c0-.13,0-.28-.08-.41h0a2.83,2.83,0,0,1,.74.27C262.9,304.19,263.2,304.55,262.74,304.83Zm11.59,5.75c.11.18,0,.48.05.72-.15,0-.34,0-.44-.05-.34-.27-.65-.58-1-.88l-.05,0-.07-.06c-.22.07-.43.15-.65.2,0,0-.21-.23-.19-.26.3-.4.57-.17.84.06l.07,0,.05.05C273.45,309.91,273.93,309.94,274.33,310.58Zm3.81,0h0l-.8.17c.08-.27.08-.62.26-.78s.53-.15.81-.21Zm2.79.12s0,.06,0,.08c.23.27.47.54,0,.84,0,0-.27-.16-.26-.2a4.79,4.79,0,0,1,.21-.64.27.27,0,0,1-.07-.08s0,0,0,0c-.43-.4-.89-.77-.9-1.42,0-.38.62-1,.81-.79a1.35,1.35,0,0,1,.34.66c.07.54.24,1.14-.25,1.55Zm3.14-1.8c.66,1.55.57,3.33,1.77,4.73.06.08-.2.56-.42.67s-.72.09-.8,0a14.6,14.6,0,0,1-2-5.14c0-.16.39-.39.64-.53h.32l.14,0C283.84,308.67,284,308.75,284.07,308.88Zm18.07-1c.15.36.09.63-.23.78a.84.84,0,0,1,0-1c.45-.64,1.05-.51,1.51.07.06.07.12.09.18.15C303.26,307.93,302.81,307.9,302.14,307.92Zm3.25-4-.29.08-.06-.26a2,2,0,0,1-.05-.26h0l.41,0C305.4,303.61,305.4,303.75,305.39,303.89Zm1.79,1.14.05.1h-.09l0-.09-.11-.19.22,0A2.56,2.56,0,0,1,307.18,305Zm17.29-8.57a3.5,3.5,0,0,1-.68.38,2.13,2.13,0,0,0,.26-.26.61.61,0,0,1,.34-.25h0A.74.74,0,0,1,324.47,296.46Zm22.35,5.25a34.71,34.71,0,0,0-8.65,3.81,28.18,28.18,0,0,1-3.8.85l-.46.08c.46-.28.91-.55,1.33-.83,1.08-.67,2.12-1.3,3.25-1.87a23.43,23.43,0,0,1,3.72-1.7c.83-2.38,6.19-1.55,7.48-3.32-1.66-.45,1.77-2.17,3.45-3.46.22.7,1,1.14,1.94,1.89A31.89,31.89,0,0,1,346.82,301.71ZM178.28,112c-.21.19-.49.5-.45.73.27,1.7-1.7,2-1.87,3.44-.11,1-.65,1.08-1.26,1a27.84,27.84,0,0,1,2.2-3.85,14.37,14.37,0,0,1,1.84-2.29A1.33,1.33,0,0,1,178.28,112Zm5.66-6.1c-.15.88-.73,1-1.49.61a5.07,5.07,0,0,0-.34.75c-.36,1.3-.68,1.59-1.75,1.42a.53.53,0,0,0-.12,0A9.81,9.81,0,0,1,182,106l.37.34a.76.76,0,0,0,.14-.87c.42-.42.88-.84,1.34-1.28A3.12,3.12,0,0,1,183.94,105.86Zm.59-2.89-.18.19a2.62,2.62,0,0,0-.73.75,4.11,4.11,0,0,1,1.44-2.13A1.72,1.72,0,0,1,184.53,103Zm1.89-2.1.53-.28A1.19,1.19,0,0,1,186.42,100.87ZM334.08,316.64c-.72-.81,1.5-.8,1.4-1.1C336.6,315.54,335,316.47,334.08,316.64Zm12.6-2.8c-.42-1.09,1-.5,2.15-1.19C348.91,313.12,347.29,313.44,346.68,313.84Zm-.28-4.13c-.26-.5,1.24-1.09,1.77-1C348.36,309.09,346.89,309.36,346.4,309.71Zm24.06-9.24a3.06,3.06,0,0,1,1-1c.16.25.32.49.67.28C372.2,300.29,370.5,301.2,370.46,300.47Zm9.41-6.16c-.57-.24.23-.77-.05-1.07-2.44,1.42-4.16,3.76-6,3.18,2.18-1.16,2.46-2.25,3.54-3.78.48-.15.88,0,1.44-.46-.06.7-.41.79-1.14,1.3.75.39,1.72.06,2.9-.94C381.3,292.93,380.81,293.58,379.87,294.31Zm30-45.79c.29.43-.65,1.84-1,2.6C408.28,250.11,409.2,249.8,409.83,248.52ZM404.94,254c.82.43-.57.85-.8,1.88C403.93,255.25,404.39,254.72,404.94,254ZM213.13,76.35c.07.06.16.16.15.18-.13.18-.25.23-.37.21ZM392.82,261.11,395.3,258a39.45,39.45,0,0,0,2.38-4c.24.17.47.34.69,0a17,17,0,0,1-1.14,2.9c-.24.5-.51,1-.79,1.52l-1,1.44c-1.37,1.9-2.85,3.72-3.94,5.18-.3.79.89.33,1.23-.31.28.61-.84,1.1-1.13,1.6-.32-.19-.12-.58-.47-.76s-1,1.26-1.48,1.73A15.05,15.05,0,0,1,392.82,261.11Zm10.52,6.12a34.47,34.47,0,0,1-3.64,3.41c-.07-1.47,1.71-2.57,2.64-4.51C402.68,266.5,402.67,267,403.34,267.23ZM396,274.79c.31.68-.81.84-1,.94-.45-.22.46-.89.17-1.17C395.88,273.61,395.22,275.74,396,274.79Zm2.75-3.13c.25.47-.23,1.26,0,1.74-.77,0-1.77,2.43-2.49,2.05C397.63,274.59,397.34,272.83,398.73,271.66Zm-3.91-.28a29.56,29.56,0,0,1-2.09,3.45c-1.31-.19-.46-1.57.56-3.35s2.52-3.7,3-4.57c1.26-.83,2.1-.58,1.15,1.24-.1-.15,0-.4-.14-.52C396,269.39,395.39,270.4,394.82,271.38Zm.06,4.74c-1.26,2.25-5.36,6.4-5.15,4.65C391.53,280.05,392.39,277.7,394.88,276.12Zm3.46-11.46a.88.88,0,0,1-.26,1.46C397.58,265.9,398.05,265.24,398.34,264.66ZM382,277.4c.16-.8,1.11-.43,1.82-1.43-.16-.12-.38.2-.59.35-.17-.25.59-.77.34-1-.58-.06-1.41,1.47-2.09,2,.2-1.67,2.6-3.94,2.91-5.17a.83.83,0,0,1,.95.8c.72.23.49-.53,1.17-.71.39-.86-1,.5-1.22-.18,1.62-1.88,2.19-2.13,2.42-3.42.86-.63.24.26,1.3-1.44,1.22.74-1,1.9-1.13,2.81,1.47-.21,1.9-3.87,3-3a27,27,0,0,0-1.82,2.67l-2,2.8A17.39,17.39,0,0,1,382,277.4Zm6.49,5.44c.23.68.78-.32,1.22-.75a24.45,24.45,0,0,1-3.18,3.91c-1.5,1.41-3.2,2.93-4.53,4.46C382.58,287.67,386.39,285.93,388.45,282.84Zm-6.83,8.76a41.18,41.18,0,0,0,3.47-2.91c-2.12.64,2.7-3.42,3.42-3.44a14.11,14.11,0,0,1-3.57,4.06,12.32,12.32,0,0,0-3.12,3.51C381.15,292.54,381.79,292,381.62,291.6Zm.51,2c-.29-.71.74-1,1.3-1.18C383.7,292.88,382.37,293.6,382.13,293.65Zm17.58-15.95-.51-.4-.24.42c-.45.64-.93,1.29-1.42,1.95-1,1.31-2.09,2.66-3.25,4a40.4,40.4,0,0,1-7.8,7.38c-.25.29.11.45-.23.77a11.61,11.61,0,0,1-1.85,1.14c-.39-.51,1-1.43,1.79-2.2-.19-.23-.38-.45-.7-.2,2.35-2.48,6.73-6.83,9.24-11.44a6.35,6.35,0,0,1,2.63-1.47c.53-.89-.66-.26-.81-.65.47-.75,1.63-.76,1.45-1.52.74-.72.48-.14.86.22A15.65,15.65,0,0,1,401,272c-.35-.7-.89.7-1.35,1.19.06-1.33,1.7-3.17,2.63-3.73.79.23.16,2.13,1.38.53-.3,1.71-3.79,4.18-3.51,5.33,2-1.88,4.13-6.22,6-6.68C404.68,272.32,401.86,274.24,399.71,277.7Zm7.85-14.85c-.29-.24-.58.14-.87-.13.52-1.33,1.05-.6,1.56-1.94C408.37,261.27,407.71,262.21,407.56,262.85Zm3.89-9.18c-2.44,3.44-4.15,6.81-6.49,10.44.34.16.69-1,1-1,.52.4-.73,2.09-1.25,1.7-.21,1-.11,1.2.81,1.37-1.42.8-2,.66-2-.07s.82-2,1.88-3.74c-.4.1-.8.82-1.2,1.3-.63-.21.65-1.47.33-1.85.29-.37.58,0,.87.14,1.48-3.07,1.52-3.34,3.2-6.61.91,0,.85-1.56,1.89-1.76.28-.92-.91.72-.73-.39,1.32-2.06,1.68-1.61,2.47-4.22-.5-.31-.69,2.22-1.24,1.33a8.61,8.61,0,0,0,1.47-3.94,1,1,0,0,1,.78.77c.42-.83.2-1.19-.33-1.32a3,3,0,0,1,1.83-2.24C415.43,245.92,411.69,251.16,411.45,253.67Zm15.63-28.53c-.79-.73.15-1.79,0-3C427.75,222.35,427,224.18,427.08,225.14Zm5.4-8.63c.66,1.49-.58.17-.67,1.4-.25-.18,0-1,.08-1.53.27.1.55.19.66-.24C432.76,216.26,432.59,216.54,432.48,216.51Zm-3-1.41.27-1.46.59.12C430.11,214.44,430,215.32,429.46,215.1Zm.14-1.86c-.5-.15-.25-1.31-.15-2.29l.59.11A5.23,5.23,0,0,1,429.6,213.24Zm-1.06-.34c-.34,2.33-.77,4.62-.82,5.95-.51-.68-.31-2.76,0-5.14s.58-5.14.7-7A24.23,24.23,0,0,1,428.54,212.9Zm7.26-11.64c-.79.15-.84.22-1.36-.54C434.9,200.2,435.91,199.67,435.8,201.26Zm-.44-2c-.22.23-.28.85-.66.7.15-.33.3-.66.06-.76.06-.41.4-.22.41-.73.16.22.32.43.59.45C435.7,199.38,435.36,199.88,435.36,199.29ZM273.46,36.55a.21.21,0,0,1,.19-.25.59.59,0,0,1,.28.06ZM437,193.64c-.27-.14-.17-1-.2-1.57-.23.05-.17.7-.2,1.15-.37.35-.66-1.19-.8-.05-.3-.39.65-1.52,1-1.87C436.87,192.68,437.35,192.28,437,193.64ZM305.88,39.6c-.44.37-.92.62-1.5.09l0,0A9.7,9.7,0,0,1,305.88,39.6ZM430,171.51c.57,0,.68,2.09.46,2.61-.56-.2-.87-1-1-2.2C429.72,171.94,430,172,430,171.51ZM286.06,30.28l.69.08a1.06,1.06,0,0,1,.06.19c-.68.43-1.74-.1-2.83-.52C284.67,30.12,285.36,30.22,286.06,30.28ZM429.94,174.9c.74.22.11,1.49.49,3-.36,0-.38.47-.76.39A18.81,18.81,0,0,1,429.94,174.9Zm3.1,5.58h.59l.17,1.91C433.21,182.52,433.28,181.14,433,180.48Zm3.2.35c-.51-.83-.42.1-.29,1.16-.84-.46-.1-2.37-.12-3.49C436.27,178.54,436.07,180.15,436.24,180.83Zm-3-4.56a6.22,6.22,0,0,1,1.32,5.73c-.65-1-.17-3.69-1.76-4.18,0-3.19-.57-5.74-.34-7.26C433.58,171.73,433.82,174.83,433.24,176.27ZM432.11,166c.2,2,0,2.73.7,4.19l-1,.08c0-2.1-1-4.76-1.06-7.21C431.61,163.84,431.12,165.42,432.11,166Zm-118-127a17.24,17.24,0,0,1,1.89,0A2,2,0,0,1,314.12,39Zm4.35,1.61a1.11,1.11,0,0,1-1-1.3s0-.09.07-.13a19.17,19.17,0,0,1,3.27.77C320.35,40.63,319.8,40.72,318.47,40.62Zm33.41,6.19a1.32,1.32,0,0,0-1.17-.51,2.88,2.88,0,0,0,0-.51,4.78,4.78,0,0,1,2.63,1.68l-.36.67c-.65-.26-1.14-1.35-1.69-1C350.24,46.27,351.83,47,351.88,46.81Zm-.1,1.32a2.62,2.62,0,0,1-.34-.47c2.08,1.19,1.35,1.65,2.12,1.07a1.77,1.77,0,0,1,1,1.29C353.65,49.43,352.77,48.67,351.78,48.13Zm27.27,26.66a.47.47,0,0,1-.23-.21ZM346.38,43.23a.72.72,0,0,0,.07-.57c1.12.43.67.76,1.17,1.15-.2.15-.78-.26-1.28-.54Zm4.92,4.66-.1,0a.87.87,0,0,1-.34-.27Zm-8.49-4.16a.71.71,0,0,1-.09-.45.37.37,0,0,1,.27-.21,2.84,2.84,0,0,1,2.23.48.73.73,0,0,0,.95-.11,5.89,5.89,0,0,1,.86.69c-.09.17.18.37.17.54-1.59-.92-1.79.16-.42,0l.62.43c-.44.42-.88.83-1.36,1.21a.91.91,0,0,1-.81-.22c-.32-.5-.37-1.28-.78-1.57S343.23,44.34,342.81,43.73Zm60.44,62.67a1.55,1.55,0,0,1,.23-.05c.24.55.21.65.07.66Zm1,2s0-.1-.06-.24c.33-.27.79,1.1,1.17,1.52a1.92,1.92,0,0,1-.68-.3C404.51,109.06,404.36,108.73,404.22,108.4Zm16.65,20.8a16.76,16.76,0,0,0,1.16,2.91c-.07.72-1,.66-1.34-.76C422.21,132.05,420,129.78,420.87,129.2Zm-91.8-90.51c-.24.07-.48.15-.54.41a10.06,10.06,0,0,0-1-.36,6.86,6.86,0,0,1-.59-.48ZM424.7,137.4c-.46.44-.78-.46-1.25,0,.13-.66-1-2.48-.1-2.42-.86-.3-1-2.34-1.43-3.64C422.76,133.78,424.3,135.5,424.7,137.4Zm5.06,4.7c-.33.07-.41.42-.34.91-.43.06-.69-.84-.94-1.79.58.55.28-.39.86.17-.13-.74-.95-2.22-.21-2A8.55,8.55,0,0,0,429.76,142.1Zm-1.67-4.49c-.93-.85-.71-1.4-1-2.62C428,135.82,427.81,136.39,428.09,137.61Zm-9.44-11.3a3.53,3.53,0,0,1-1.18-1.62C418,124.4,418.74,125.67,418.65,126.31Zm-4.14-3.71c-.75-.72-.65-1.33-1.56-2.67C413.5,119.7,414.5,122,414.51,122.6ZM410,115.4c.75,0,.67,1.39,1.57,2.21C411.05,118.21,410.52,116.11,410,115.4Zm4.53,4.65c-1.17-.89-1.47-1.57-2.79-3.37.53.36,1.74,2,.86,0C413.58,116.79,413.79,118.84,414.52,120.05Zm-10-13.88a29.73,29.73,0,0,0,4.65,5.33c.51.73-.26.62.1,1.26.45-1,2,1.54,3,3.23-.67.18-.9.42-1.21.17a3.85,3.85,0,0,0-1.23-2c.17,1.15-1.13-.69-1.54-.48-.3-.73-.16-.83.31-.6-1.86-2.21-3.29-5.46-5.17-7.62.22-.07.73.35.48-.3-.26.86-.79-1-1.1-.67.11.48-.09.48-.38.3-.43-.8-.86-1.61-1.34-2.41.31-.68.92,1.4,1.27,1-1-1.39-1.84-4.16-2.77-4.14.88,1.47,1.41,1.94,1.44,3a.83.83,0,0,0-.07-.13c-.82-1.25-1.7-2.5-2.67-3.74a1.15,1.15,0,0,0,.29-.81l0,0a4.1,4.1,0,0,1,2.27,2,9.92,9.92,0,0,0,1.87,2.63,1.64,1.64,0,0,1,0,1.39c.89.19,3,3.12,3.32,3.83C405.59,108,405,106.08,404.5,106.17ZM418,119.74c-.49-1.34-1.25-1.53-1.25-2.48C417.3,116.49,419,119.82,418,119.74Zm-1.78-3.1c.15-1-.53-2.56.11-3.16C416.87,115,417.36,116.42,416.24,116.64Zm-21-24.11c-.24-.2-.47-.4-.69-.56a1.21,1.21,0,0,1,0-.43A5.28,5.28,0,0,1,395.23,92.53ZM380.77,77.72a1,1,0,0,1-.07-.15,3.32,3.32,0,0,1-.26-1.5l1.37,1.34a32.65,32.65,0,0,0,3.11,2.65c-.19.24-.51.43.11,1,.25-.16.41-.59.81-.25a9.56,9.56,0,0,1,1.49,2.47,41.35,41.35,0,0,1-5.14-4.31Zm9.43,9.06a5.12,5.12,0,0,1,1,1.09C390.87,87.51,390.53,87.15,390.2,86.78Zm3.85,3.32a.62.62,0,0,1-.11.17c-.39-.3-.88-.7-1.39-1.16a9.27,9.27,0,0,1-.89-1.66A35.69,35.69,0,0,0,394.05,90.1Zm-4.68-5.77c.15,2,.15.79,1.5,2.79a1.51,1.51,0,0,0-.9-.6,12.34,12.34,0,0,1-1.44-1.94c.27.08.54.19.82.29a8.68,8.68,0,0,0-1.07-.89,1,1,0,0,1-.07-.18l-.3-.18a.58.58,0,0,1-.12-.45C388.34,83.66,388.66,83.31,389.37,84.33ZM355.24,49.76c.59.42,1,.72,1.41,1,0,0-.08,0-.13.05a3.63,3.63,0,0,1-.65-.16C355.31,50.29,354.82,50,355.24,49.76Zm8.11,6.09-.8-.14-.37-.24a6.53,6.53,0,0,0-.87,0,5.41,5.41,0,0,1-.56-.18.76.76,0,0,1-.11-1.19,1.5,1.5,0,0,1,.32-.19l.1,0c.46,1.12,1.88,1.6,2,1.24C363.4,55.51,363.44,55.73,363.35,55.85Zm1.49.19a3.47,3.47,0,0,1-.27-.3,2.82,2.82,0,0,1,.8.29A3,3,0,0,1,364.84,56Zm3,2.39a6.53,6.53,0,0,1-.37-.9c.48.45.81.91.79,1.22Zm1.05.8A5.61,5.61,0,0,1,371,60.36C370.88,61.15,369.23,59.83,368.91,59.23Zm6,5.21v0l.06.06Zm-.79-.63-.87-.67a9.17,9.17,0,0,0-2.12-2.23C372.19,60.49,373.82,62.74,374.12,63.81Zm.18-1.19c-.31-.54,1.31,1.06,2.51,2C375.93,64.9,374.79,63.49,374.3,62.62Z"/></g></g></svg>