<svg xmlns="http://www.w3.org/2000/svg" viewBox="0 0 22.53 25.32"><defs><style>.cls-1{fill:#666;}</style></defs><g id="Layer_2" data-name="Layer 2"><g id="Layer_1-2" data-name="Layer 1"><path class="cls-1" d="M10.53,20.55a.92.92,0,0,0,1.51,0l5.8-5.81c.11-.11.29-.23.3-.35,0-.3,0-.7-.13-.86a1,1,0,0,0-.85,0c-.25.1-.43.39-.64.6L12,18.64V1.31C12,.77,12.12,0,11.33,0s-.7.71-.7,1.27V18.66L10,18.05,5.89,14a3.83,3.83,0,0,1-.29-.28c-.32-.35-.71-.57-1.11-.2s-.23.81.13,1.17Z" transform="translate(0)"/><path class="cls-1" d="M22.49,18.89c0-.25-.45-.48-.7-.72a7,7,0,0,0-.66.78c-.09.13,0,.37,0,.55v4.38H1.42V19.27c0-.49-.08-1-.69-1s-.73.49-.73,1c0,1.63,0,3.27,0,4.9,0,1,.17,1.12,1.12,1.12H21.63c.5,0,.88-.2.88-.72C22.54,22.7,22.55,20.79,22.49,18.89Z" transform="translate(0)"/></g></g></svg>