<svg xmlns="http://www.w3.org/2000/svg" viewBox="0 0 27.2 27.2"><defs><style>.cls-1{fill:#2d6d95;}</style></defs><g id="Layer_2" data-name="Layer 2"><g id="Layer_1-2" data-name="Layer 1"><path class="cls-1" d="M20.06,27.2c-3.47-.77-6.19-2.9-8.89-5A37.33,37.33,0,0,1,.85,9.67,19.22,19.22,0,0,1,0,7.25V5.68s.06-.06.07-.09A6.71,6.71,0,0,1,5.08,0h.84A7.79,7.79,0,0,1,7.25,1.07c1.37,1.68,2.68,3.42,4,5.13a1.77,1.77,0,0,1-.15,2.54c-.44.44-.9.87-1.33,1.32a1.18,1.18,0,0,0-.1,1.6,27.63,27.63,0,0,0,4.56,4.8c.41.32.81.65,1.23,1a1.17,1.17,0,0,0,1.64-.05c.46-.43.88-.88,1.33-1.32A1.79,1.79,0,0,1,21,15.93c1.71,1.33,3.44,2.65,5.13,4a8.12,8.12,0,0,1,1.07,1.32v.85A6,6,0,0,1,24.43,26a20.74,20.74,0,0,1-3,1.22Zm.58-1.06L20.7,26a9.87,9.87,0,0,0,1.07-.16,5.41,5.41,0,0,0,4.14-3.72.88.88,0,0,0-.28-1.08Q22.95,19,20.29,16.91a.68.68,0,0,0-1.05.09c-.43.45-.86.9-1.33,1.32a2.44,2.44,0,0,1-3,.14,26.68,26.68,0,0,1-6.13-6.1A2.45,2.45,0,0,1,9,9.16c.38-.39.75-.79,1.16-1.15s.43-.73.07-1.19c-1.32-1.65-2.6-3.32-3.9-5-.53-.68-.72-.74-1.54-.47a3.23,3.23,0,0,0-.66.29A5.5,5.5,0,0,0,1.94,9.19a37.58,37.58,0,0,0,16,16A18.71,18.71,0,0,0,20.64,26.14Z"/></g></g></svg>